<svg width="28" height="28" viewBox="0 0 28 28" fill="none" xmlns="http://www.w3.org/2000/svg">
<g clip-path="url(#clip0_1702_10995)">
<path d="M7 0C6.0375 0 5.25 0.7875 5.25 1.75V26.25C5.25 27.2125 6.0375 28 7 28H24.5C25.4625 28 26.25 27.2125 26.25 26.25V7L19.25 0H7Z" fill="#E2E5E7"/>
<path d="M21 7H26.25L19.25 0V5.25C19.25 6.2125 20.0375 7 21 7Z" fill="#B0B7BD"/>
<path d="M26.25 12.25L21 7H26.25V12.25Z" fill="#CAD1D8"/>
<path d="M22.75 22.75C22.75 23.2312 22.3563 23.625 21.875 23.625H2.625C2.14375 23.625 1.75 23.2312 1.75 22.75V14C1.75 13.5187 2.14375 13.125 2.625 13.125H21.875C22.3563 13.125 22.75 13.5187 22.75 14V22.75Z" fill="#84BD5A"/>
<path d="M7.3211 17.0336H6.12498C5.53698 17.0336 5.57198 16.1586 6.12498 16.1586H8.26523C8.69223 16.1586 8.88823 16.6495 8.57323 16.9636L7.4121 18.0486C8.2661 17.9856 8.93723 18.6209 8.93723 19.4058C8.93723 20.2659 8.3291 21 7.04898 21C6.48898 21 5.93685 20.769 5.61398 20.2659C5.27798 19.7698 5.9981 19.2929 6.3761 19.7829C6.55898 20.02 6.85298 20.1399 7.1671 20.1399C7.59323 20.1399 8.01323 19.957 8.01323 19.4049C8.01323 18.6769 7.1251 18.7898 6.64298 18.8379C6.05498 18.9508 5.87998 18.3129 6.22298 18.0486L7.3211 17.0336Z" fill="white"/>
<path d="M10.3924 21C10.1614 21 9.90938 20.874 9.90938 20.5669V16.5926C9.90938 16.3415 10.1614 16.1586 10.3924 16.1586H11.9945C15.1918 16.1586 15.1218 21 12.0575 21H10.3924ZM10.8334 17.0126V20.1469H11.9945C13.8836 20.1469 13.9676 17.0126 11.9945 17.0126H10.8334Z" fill="white"/>
<path d="M15.1961 17.2086C15.3571 15.8506 17.4063 15.6065 18.3723 16.3485C18.8483 16.7326 18.3443 17.3416 17.9243 17.0336C17.4063 16.7055 16.2312 16.5515 16.0842 17.2778C15.8952 18.4258 18.9385 17.7686 18.8895 19.6298C18.8405 21.4069 16.2662 21.448 15.3002 20.6509C15.0683 20.4619 15.0762 20.1548 15.2022 19.9649C15.3842 19.7838 15.5863 19.7208 15.8252 19.9168C16.3983 20.3079 17.8753 20.6019 17.9795 19.6079C17.8893 18.5736 14.9791 19.1958 15.1961 17.2086Z" fill="white"/>
<path d="M21.875 23.625H5.25V24.5H21.875C22.3563 24.5 22.75 24.1063 22.75 23.625V22.75C22.75 23.2313 22.3563 23.625 21.875 23.625Z" fill="#CAD1D8"/>
</g>
<defs>
<clipPath id="clip0_1702_10995">
<rect width="28" height="28" fill="white"/>
</clipPath>
</defs>
</svg>
