<svg width="28" height="28" viewBox="0 0 28 28" fill="none" xmlns="http://www.w3.org/2000/svg">
<g clip-path="url(#clip0_1702_10781)">
<path d="M7 0C6.0375 0 5.25 0.7875 5.25 1.75V26.25C5.25 27.2125 6.0375 28 7 28H24.5C25.4625 28 26.25 27.2125 26.25 26.25V7L19.25 0H7Z" fill="#E2E5E7"/>
<path d="M21 7H26.25L19.25 0V5.25C19.25 6.2125 20.0375 7 21 7Z" fill="#B0B7BD"/>
<path d="M26.25 12.25L21 7H26.25V12.25Z" fill="#CAD1D8"/>
<path d="M22.75 22.75C22.75 23.2312 22.3563 23.625 21.875 23.625H2.625C2.14375 23.625 1.75 23.2312 1.75 22.75V14C1.75 13.5187 2.14375 13.125 2.625 13.125H21.875C22.3563 13.125 22.75 13.5187 22.75 14V22.75Z" fill="#F15642"/>
<path d="M4.8326 21C4.6086 20.874 4.4686 20.622 4.6086 20.328L6.61672 16.4045C6.80572 16.0335 7.30885 16.0195 7.48385 16.4045L9.45697 20.328C9.74397 20.874 8.89697 21.3071 8.64497 20.762L8.33697 20.1469H5.75572L5.45385 20.762C5.3436 21 5.08547 21.0499 4.8326 21ZM7.84172 19.2237L7.05072 17.4947L6.18972 19.2237H7.84172Z" fill="white"/>
<path d="M10.346 21C10.122 20.874 9.98198 20.622 10.122 20.328L12.1292 16.4045C12.3182 16.0335 12.8222 16.0195 12.9972 16.4045L14.9695 20.328C15.2565 20.874 14.4095 21.3071 14.1584 20.762L13.8495 20.1469H11.2682L10.9672 20.762C10.8561 21 10.5971 21.0499 10.346 21ZM13.3542 19.2237L12.5641 17.4947L11.704 19.2237H13.3542Z" fill="white"/>
<path d="M15.4446 18.5439C15.4446 17.1938 16.2916 16.0335 17.9007 16.0335C18.5097 16.0335 18.9919 16.2146 19.5029 16.6556C19.6919 16.8298 19.7129 17.1386 19.5239 17.3338C19.3349 17.5009 19.0479 17.4808 18.8807 17.3136C18.5937 17.0126 18.2997 16.9295 17.9007 16.9295C16.8236 16.9295 16.3056 17.6916 16.3056 18.5448C16.3056 19.4128 16.8166 20.2108 17.9007 20.2108C18.2997 20.2108 18.6707 20.0489 18.9919 19.7628C19.2089 19.5948 19.5099 19.6779 19.6359 19.8468C19.7479 20.0008 19.803 20.2589 19.5589 20.5039C19.0689 20.9598 18.4817 21.0499 17.8999 21.0499C16.2076 21.0499 15.4446 19.8949 15.4446 18.5439Z" fill="white"/>
<path d="M21.875 23.625H5.25V24.5H21.875C22.3563 24.5 22.75 24.1063 22.75 23.625V22.75C22.75 23.2313 22.3563 23.625 21.875 23.625Z" fill="#CAD1D8"/>
</g>
<defs>
<clipPath id="clip0_1702_10781">
<rect width="28" height="28" fill="white"/>
</clipPath>
</defs>
</svg>
