<svg width="28" height="28" viewBox="0 0 28 28" fill="none" xmlns="http://www.w3.org/2000/svg">
<g clip-path="url(#clip0_1702_10649)">
<path d="M7 0C6.0375 0 5.25 0.7875 5.25 1.75V26.25C5.25 27.2125 6.0375 28 7 28H24.5C25.4625 28 26.25 27.2125 26.25 26.25V7L19.25 0H7Z" fill="#E2E5E7"/>
<path d="M21 7H26.25L19.25 0V5.25C19.25 6.2125 20.0375 7 21 7Z" fill="#B0B7BD"/>
<path d="M26.25 12.25L21 7H26.25V12.25Z" fill="#CAD1D8"/>
<path d="M22.75 22.75C22.75 23.2312 22.3563 23.625 21.875 23.625H2.625C2.14375 23.625 1.75 23.2312 1.75 22.75V14C1.75 13.5187 2.14375 13.125 2.625 13.125H21.875C22.3563 13.125 22.75 13.5187 22.75 14V22.75Z" fill="#F7B84E"/>
<path d="M8.98098 21C8.75698 20.8731 8.61698 20.622 8.75698 20.328L10.7642 16.4036C10.9532 16.0326 11.4572 16.0186 11.6322 16.4036L13.6045 20.328C13.8915 20.8731 13.0445 21.3071 12.7934 20.762L12.4845 20.146H9.90323L9.60223 20.762C9.49111 21 9.23211 21.0499 8.98098 21ZM11.9884 19.2229L11.1982 17.4948L10.3381 19.2229H11.9884Z" fill="white"/>
<path d="M14.4401 16.5786C14.4401 16.0046 15.3641 15.9836 15.3641 16.5786V20.5721C15.3641 21.1531 14.4401 21.1671 14.4401 20.5721V16.5786Z" fill="white"/>
<path d="M21.875 23.625H5.25V24.5H21.875C22.3563 24.5 22.75 24.1063 22.75 23.625V22.75C22.75 23.2313 22.3563 23.625 21.875 23.625Z" fill="#CAD1D8"/>
</g>
<defs>
<clipPath id="clip0_1702_10649">
<rect width="28" height="28" fill="white"/>
</clipPath>
</defs>
</svg>
