<svg width="28" height="28" viewBox="0 0 28 28" fill="none" xmlns="http://www.w3.org/2000/svg">
<g clip-path="url(#clip0_1702_10759)">
<path d="M7 0C6.0375 0 5.25 0.7875 5.25 1.75V26.25C5.25 27.2125 6.0375 28 7 28H24.5C25.4625 28 26.25 27.2125 26.25 26.25V7L19.25 0H7Z" fill="#E2E5E7"/>
<path d="M21 7H26.25L19.25 0V5.25C19.25 6.2125 20.0375 7 21 7Z" fill="#B0B7BD"/>
<path d="M26.25 12.25L21 7H26.25V12.25Z" fill="#CAD1D8"/>
<path d="M22.75 22.75C22.75 23.2312 22.3563 23.625 21.875 23.625H2.625C2.14375 23.625 1.75 23.2312 1.75 22.75V14C1.75 13.5187 2.14375 13.125 2.625 13.125H21.875C22.3563 13.125 22.75 13.5187 22.75 14V22.75Z" fill="#F15642"/>
<path d="M6.6395 21.0014C6.4155 20.8746 6.2755 20.6234 6.4155 20.3294L8.42363 16.4051C8.61263 16.0341 9.11576 16.0201 9.29076 16.4051L11.2639 20.3294C11.5509 20.8746 10.7039 21.3086 10.4519 20.7626L10.1439 20.1474H7.56263L7.26251 20.7634C7.15051 21.0014 6.8915 21.0504 6.6395 21.0014ZM9.64776 19.2243L8.85676 17.4962L7.99663 19.2243H9.64776Z" fill="white"/>
<path d="M13.2125 20.6859L11.3654 16.8175C11.0924 16.2645 11.9184 15.8103 12.2255 16.3905L12.8485 17.7966L13.6526 19.6428L14.4427 17.7966L15.0657 16.3905C15.3457 15.8593 16.1569 16.1945 15.9197 16.7755L14.1356 20.6859C13.9746 21.1269 13.4776 21.2319 13.2125 20.6859Z" fill="white"/>
<path d="M16.7825 16.5786C16.7825 16.0055 17.7065 15.9836 17.7065 16.5786V20.573C17.7065 21.154 16.7825 21.168 16.7825 20.573V16.5786Z" fill="white"/>
<path d="M21.875 23.625H5.25V24.5H21.875C22.3563 24.5 22.75 24.1063 22.75 23.625V22.75C22.75 23.2313 22.3563 23.625 21.875 23.625Z" fill="#CAD1D8"/>
</g>
<defs>
<clipPath id="clip0_1702_10759">
<rect width="28" height="28" fill="white"/>
</clipPath>
</defs>
</svg>
