<svg width="28" height="28" viewBox="0 0 28 28" fill="none" xmlns="http://www.w3.org/2000/svg">
<g clip-path="url(#clip0_1702_10856)">
<path d="M7 0C6.0375 0 5.25 0.7875 5.25 1.75V26.25C5.25 27.2125 6.0375 28 7 28H24.5C25.4625 28 26.25 27.2125 26.25 26.25V7L19.25 0H7Z" fill="#E2E5E7"/>
<path d="M21 7H26.25L19.25 0V5.25C19.25 6.2125 20.0375 7 21 7Z" fill="#B0B7BD"/>
<path d="M26.25 12.25L21 7H26.25V12.25Z" fill="#CAD1D8"/>
<path d="M22.75 22.75C22.75 23.2312 22.3563 23.625 21.875 23.625H2.625C2.14375 23.625 1.75 23.2312 1.75 22.75V14C1.75 13.5187 2.14375 13.125 2.625 13.125H21.875C22.3563 13.125 22.75 13.5187 22.75 14V22.75Z" fill="#84BD5A"/>
<path d="M5.46698 21C5.21498 21 5.03998 20.811 5.03998 20.566V16.5926C5.03998 16.3406 5.21498 16.1586 5.46698 16.1586H7.4331C8.3501 16.1586 8.84623 16.7816 8.84623 17.4948C8.84623 17.8089 8.75523 18.1178 8.4621 18.3768C9.01423 18.5938 9.25923 19.0199 9.25923 19.5379C9.25835 20.342 8.71235 21 7.66323 21H5.46698ZM7.43223 17.0118H5.9561V18.0539H7.43223C7.73323 18.0539 7.92223 17.8649 7.92223 17.4939C7.92223 17.2638 7.73323 17.0118 7.43223 17.0118ZM5.9561 20.146H7.66323C8.47523 20.146 8.47523 18.9079 7.66323 18.9079C7.1321 18.9079 6.5091 18.9079 5.9561 18.9079V20.146Z" fill="white"/>
<path d="M11.0171 17.9288V20.517C11.0171 20.8259 10.7651 21 10.514 21C10.29 21 10.094 20.8259 10.094 20.517V16.5786C10.094 16.2146 10.4028 16.0948 10.514 16.0948C10.7161 16.0948 10.8351 16.2146 10.9541 16.3476L12.4941 18.4249L14.0883 16.2698C14.3202 15.9836 14.8863 16.0948 14.8863 16.5786V20.517C14.8863 20.8259 14.6903 21 14.4672 21C14.2152 21 14.0192 20.8259 14.0192 20.517V17.9288L12.8572 19.3979C12.6061 19.7068 12.2911 19.7068 12.0601 19.3979L11.0171 17.9288Z" fill="white"/>
<path d="M15.869 16.5786C15.869 16.3476 16.051 16.0948 16.345 16.0948H17.9611C18.8711 16.0948 19.6901 16.7038 19.6901 17.8719C19.6901 18.9779 18.8711 19.593 17.9611 19.593H16.793V20.517C16.793 20.8259 16.597 21 16.345 21C16.114 21 15.869 20.8259 15.869 20.517V16.5786ZM16.7921 16.9768V18.7189H17.9602C18.4292 18.7189 18.8002 18.3059 18.8002 17.8719C18.8002 17.3819 18.4292 16.9768 17.9602 16.9768H16.7921Z" fill="white"/>
<path d="M21.875 23.625H5.25V24.5H21.875C22.3563 24.5 22.75 24.1063 22.75 23.625V22.75C22.75 23.2313 22.3563 23.625 21.875 23.625Z" fill="#CAD1D8"/>
</g>
<defs>
<clipPath id="clip0_1702_10856">
<rect width="28" height="28" fill="white"/>
</clipPath>
</defs>
</svg>
