<svg width="28" height="28" viewBox="0 0 28 28" fill="none" xmlns="http://www.w3.org/2000/svg">
<g clip-path="url(#clip0_1702_10887)">
<path d="M7 0C6.0375 0 5.25 0.7875 5.25 1.75V26.25C5.25 27.2125 6.0375 28 7 28H24.5C25.4625 28 26.25 27.2125 26.25 26.25V7L19.25 0H7Z" fill="#E2E5E7"/>
<path d="M21 7H26.25L19.25 0V5.25C19.25 6.2125 20.0375 7 21 7Z" fill="#B0B7BD"/>
<path d="M26.25 12.25L21 7H26.25V12.25Z" fill="#CAD1D8"/>
<path d="M22.75 22.75C22.75 23.2312 22.3563 23.625 21.875 23.625H2.625C2.14375 23.625 1.75 23.2312 1.75 22.75V14C1.75 13.5187 2.14375 13.125 2.625 13.125H21.875C22.3563 13.125 22.75 13.5187 22.75 14V22.75Z" fill="#50BEE8"/>
<path d="M4.68384 18.5439C4.68384 17.1937 5.53084 16.0326 7.13996 16.0326C7.74809 16.0326 8.23109 16.2146 8.74209 16.6556C8.93109 16.8297 8.95121 17.1386 8.76221 17.3337C8.57321 17.5009 8.28709 17.4807 8.11909 17.3127C7.83209 17.0117 7.53809 16.9286 7.13996 16.9286C6.06284 16.9286 5.54484 17.6916 5.54484 18.5447C5.54484 19.4127 6.05584 20.2099 7.13996 20.2099C7.53809 20.2099 7.90909 20.0489 8.23109 19.7619C8.44809 19.5947 8.74909 19.6779 8.87421 19.8459C8.98621 19.9999 9.04221 20.2589 8.79721 20.5039C8.30721 20.9589 7.72009 21.0499 7.13909 21.0499C5.44684 21.0499 4.68384 19.8949 4.68384 18.5439Z" fill="white"/>
<path d="M9.90148 21C9.67748 20.874 9.53748 20.622 9.67748 20.328L11.6847 16.4036C11.8737 16.0326 12.3777 16.0195 12.5527 16.4036L14.525 20.328C14.812 20.874 13.965 21.3071 13.7139 20.762L13.405 20.146H10.8237L10.5227 20.762C10.4116 21 10.1535 21.0499 9.90148 21ZM12.9097 19.2237L12.1196 17.4947L11.2595 19.2237H12.9097Z" fill="white"/>
<path d="M15.8191 21C15.5881 21 15.3361 20.874 15.3361 20.5669V16.5926C15.3361 16.3406 15.5881 16.1586 15.8191 16.1586H17.4212C20.6185 16.1586 20.5485 21 17.4842 21H15.8191ZM16.2601 17.0118V20.146H17.4212C19.3104 20.146 19.3944 17.0118 17.4212 17.0118H16.2601Z" fill="white"/>
<path d="M21.875 23.625H5.25V24.5H21.875C22.3563 24.5 22.75 24.1063 22.75 23.625V22.75C22.75 23.2313 22.3563 23.625 21.875 23.625Z" fill="#CAD1D8"/>
</g>
<defs>
<clipPath id="clip0_1702_10887">
<rect width="28" height="28" fill="white"/>
</clipPath>
</defs>
</svg>
