<svg width="28" height="28" viewBox="0 0 28 28" fill="none" xmlns="http://www.w3.org/2000/svg">
<g clip-path="url(#clip0_1702_11125)">
<path d="M7 0C6.0375 0 5.25 0.7875 5.25 1.75V26.25C5.25 27.2125 6.0375 28 7 28H24.5C25.4625 28 26.25 27.2125 26.25 26.25V7L19.25 0H7Z" fill="#E2E5E7"/>
<path d="M21 7H26.25L19.25 0V5.25C19.25 6.2125 20.0375 7 21 7Z" fill="#B0B7BD"/>
<path d="M26.25 12.25L21 7H26.25V12.25Z" fill="#CAD1D8"/>
<path d="M22.75 22.75C22.75 23.2312 22.3563 23.625 21.875 23.625H2.625C2.14375 23.625 1.75 23.2312 1.75 22.75V14C1.75 13.5187 2.14375 13.125 2.625 13.125H21.875C22.3563 13.125 22.75 13.5187 22.75 14V22.75Z" fill="#84BD5A"/>
<path d="M4.95424 18.5439C4.95424 17.1938 5.80036 16.0335 7.41036 16.0335C8.01849 16.0335 8.50149 16.2146 9.01249 16.6556C9.20149 16.8298 9.22162 17.1386 9.03262 17.3338C8.84362 17.5009 8.55662 17.4808 8.38949 17.3136C8.10249 17.0126 7.80849 16.9295 7.41036 16.9295C6.33324 16.9295 5.81524 17.6916 5.81524 18.5448C5.81524 19.4128 6.32536 20.2108 7.41036 20.2108C7.80849 20.2108 8.17949 20.0489 8.50149 19.7628C8.71849 19.5948 9.01949 19.6779 9.14462 19.8468C9.25662 20.0008 9.31262 20.2589 9.06762 20.5039C8.57762 20.9598 7.99049 21.0499 7.40949 21.0499C5.71724 21.0499 4.95424 19.8949 4.95424 18.5439Z" fill="white"/>
<path d="M10.6671 21C10.4361 21 10.1841 20.874 10.1841 20.5669V16.5926C10.1841 16.3415 10.4361 16.1586 10.6671 16.1586H12.2693C15.4665 16.1586 15.3965 21 12.3323 21H10.6671ZM11.1081 17.0126V20.1469H12.2693C14.1584 20.1469 14.2424 17.0126 12.2693 17.0126H11.1081Z" fill="white"/>
<path d="M16.548 20.545C16.548 21.1531 15.6178 21.175 15.6178 20.559V16.5856C15.6178 16.3415 15.8068 16.1586 16.037 16.1586H17.8981C19.6752 16.1586 20.0392 18.5378 18.5561 19.1319L19.4862 20.2659C19.8502 20.8049 19.1222 21.322 18.7022 20.7909L17.6461 19.2789H16.5471V20.545H16.548ZM16.548 18.4748H17.8981C18.8081 18.4748 18.8641 17.0056 17.8981 17.0056H16.548V18.4748Z" fill="white"/>
<path d="M21.875 23.625H5.25V24.5H21.875C22.3563 24.5 22.75 24.1063 22.75 23.625V22.75C22.75 23.2313 22.3563 23.625 21.875 23.625Z" fill="#CAD1D8"/>
</g>
<defs>
<clipPath id="clip0_1702_11125">
<rect width="28" height="28" fill="white"/>
</clipPath>
</defs>
</svg>
