<svg width="28" height="28" viewBox="0 0 28 28" fill="none" xmlns="http://www.w3.org/2000/svg">
<g clip-path="url(#clip0_1702_11201)">
<path d="M7 0C6.0375 0 5.25 0.7875 5.25 1.75V26.25C5.25 27.2125 6.0375 28 7 28H24.5C25.4625 28 26.25 27.2125 26.25 26.25V7L19.25 0H7Z" fill="#E2E5E7"/>
<path d="M21 7H26.25L19.25 0V5.25C19.25 6.2125 20.0375 7 21 7Z" fill="#B0B7BD"/>
<path d="M26.25 12.25L21 7H26.25V12.25Z" fill="#CAD1D8"/>
<path d="M22.75 22.75C22.75 23.2312 22.3563 23.625 21.875 23.625H2.625C2.14375 23.625 1.75 23.2312 1.75 22.75V14C1.75 13.5187 2.14375 13.125 2.625 13.125H21.875C22.3563 13.125 22.75 13.5187 22.75 14V22.75Z" fill="#576D7E"/>
<path d="M5.68402 18.5439C5.68402 17.1937 6.53015 16.0326 8.14014 16.0326C8.74827 16.0326 9.23127 16.2146 9.74227 16.6556C9.93127 16.8297 9.95139 17.1377 9.76239 17.3337C9.57339 17.5009 9.28639 17.4807 9.11927 17.3127C8.83227 17.0117 8.53827 16.9286 8.14014 16.9286C7.06302 16.9286 6.54502 17.6916 6.54502 18.5447C6.54502 19.4127 7.05602 20.2099 8.14014 20.2099C8.53827 20.2099 8.90927 20.048 9.23127 19.7619C9.44827 19.5939 9.74927 19.677 9.87439 19.8459C9.98639 19.9999 10.0424 20.2589 9.79739 20.503C9.30739 20.9589 8.72027 21.0499 8.13927 21.0499C6.44702 21.0499 5.68402 19.894 5.68402 18.5439Z" fill="white"/>
<path d="M10.703 17.2077C10.864 15.8506 12.9133 15.6065 13.8793 16.3485C14.3553 16.7326 13.8513 17.3416 13.4313 17.0336C12.9133 16.7046 11.7381 16.5506 11.5911 17.2777C11.4021 18.4257 14.4454 17.7686 14.3964 19.6289C14.3474 21.406 11.7731 21.448 10.8071 20.65C10.5753 20.4619 10.5831 20.1547 10.7091 19.9649C10.8911 19.7837 11.0933 19.7207 11.3321 19.9159C11.9053 20.3079 13.3823 20.6019 13.4864 19.607C13.3971 18.5727 10.486 19.1957 10.703 17.2077Z" fill="white"/>
<path d="M15.12 17.2077C15.281 15.8506 17.3302 15.6065 18.2962 16.3485C18.7722 16.7326 18.2682 17.3416 17.8482 17.0336C17.3302 16.7046 16.1551 16.5506 16.0081 17.2777C15.8191 18.4257 18.8624 17.7686 18.8134 19.6289C18.7644 21.406 16.1901 21.448 15.2241 20.65C14.9931 20.4619 15.0001 20.1547 15.1261 19.9649C15.3081 19.7837 15.5102 19.7207 15.7491 19.9159C16.3222 20.3079 17.7992 20.6019 17.9042 19.607C17.8132 18.5727 14.903 19.1957 15.12 17.2077Z" fill="white"/>
<path d="M21.875 23.625H5.25V24.5H21.875C22.3563 24.5 22.75 24.1063 22.75 23.625V22.75C22.75 23.2313 22.3563 23.625 21.875 23.625Z" fill="#CAD1D8"/>
</g>
<defs>
<clipPath id="clip0_1702_11201">
<rect width="28" height="28" fill="white"/>
</clipPath>
</defs>
</svg>
