<svg width="28" height="28" viewBox="0 0 28 28" fill="none" xmlns="http://www.w3.org/2000/svg">
<g clip-path="url(#clip0_1702_11168)">
<path d="M7 0C6.0375 0 5.25 0.7875 5.25 1.75V26.25C5.25 27.2125 6.0375 28 7 28H24.5C25.4625 28 26.25 27.2125 26.25 26.25V7L19.25 0H7Z" fill="#E2E5E7"/>
<path d="M21 7H26.25L19.25 0V5.25C19.25 6.2125 20.0375 7 21 7Z" fill="#B0B7BD"/>
<path d="M26.25 12.25L21 7H26.25V12.25Z" fill="#CAD1D8"/>
<path d="M22.75 22.75C22.75 23.2312 22.3563 23.625 21.875 23.625H2.625C2.14375 23.625 1.75 23.2312 1.75 22.75V14C1.75 13.5187 2.14375 13.125 2.625 13.125H21.875C22.3563 13.125 22.75 13.5187 22.75 14V22.75Z" fill="#84BD5A"/>
<path d="M6.03042 21C5.79942 21 5.54742 20.874 5.54742 20.5668V16.5926C5.54742 16.3406 5.79942 16.1586 6.03042 16.1586H7.63255C10.8298 16.1586 10.7598 21 7.69555 21H6.03042ZM6.47142 17.0117V20.146H7.63255C9.52167 20.146 9.60567 17.0117 7.63255 17.0117H6.47142Z" fill="white"/>
<path d="M10.7344 21C10.5104 20.874 10.3713 20.622 10.5104 20.328L12.5186 16.4036C12.7076 16.0326 13.2116 16.0195 13.3866 16.4036L15.3588 20.328C15.6458 20.874 14.7988 21.3071 14.5477 20.762L14.2388 20.146H11.6576L11.3566 20.762C11.2454 21 10.9864 21.0499 10.7344 21ZM13.7427 19.2237L12.9526 17.4947L12.0924 19.2237H13.7427Z" fill="white"/>
<path d="M16.7115 17.0336H15.4874C14.8784 17.0336 14.8784 16.1385 15.4874 16.1385H18.7958C19.4188 16.1385 19.4188 17.0336 18.7958 17.0336H17.6346V20.5669C17.6346 21.175 16.7106 21.189 16.7106 20.5669V17.0336H16.7115Z" fill="white"/>
<path d="M21.875 23.625H5.25V24.5H21.875C22.3563 24.5 22.75 24.1063 22.75 23.625V22.75C22.75 23.2313 22.3563 23.625 21.875 23.625Z" fill="#CAD1D8"/>
</g>
<defs>
<clipPath id="clip0_1702_11168">
<rect width="28" height="28" fill="white"/>
</clipPath>
</defs>
</svg>
