<svg width="28" height="28" viewBox="0 0 28 28" fill="none" xmlns="http://www.w3.org/2000/svg">
<g clip-path="url(#clip0_1702_11147)">
<path d="M7 0C6.0375 0 5.25 0.7875 5.25 1.75V26.25C5.25 27.2125 6.0375 28 7 28H24.5C25.4625 28 26.25 27.2125 26.25 26.25V7L19.25 0H7Z" fill="#E2E5E7"/>
<path d="M21 7H26.25L19.25 0V5.25C19.25 6.2125 20.0375 7 21 7Z" fill="#B0B7BD"/>
<path d="M26.25 12.25L21 7H26.25V12.25Z" fill="#CAD1D8"/>
<path d="M22.75 22.75C22.75 23.2312 22.3563 23.625 21.875 23.625H2.625C2.14375 23.625 1.75 23.2312 1.75 22.75V14C1.75 13.5187 2.14375 13.125 2.625 13.125H21.875C22.3563 13.125 22.75 13.5187 22.75 14V22.75Z" fill="#576D7E"/>
<path d="M6.45755 21.0015C6.22655 21.0015 5.97455 20.8746 5.97455 20.5675V16.5941C5.97455 16.3421 6.22655 16.1601 6.45755 16.1601H8.05967C11.2569 16.1601 11.1869 21.0015 8.12267 21.0015H6.45755ZM6.89855 17.0132V20.1475H8.05967C9.9488 20.1475 10.0328 17.0132 8.05967 17.0132H6.89855Z" fill="white"/>
<path d="M11.4083 16.5786C11.4083 16.3476 11.6043 16.1516 11.8493 16.1516C12.0733 16.1516 12.2623 16.3485 12.2623 16.5786V20.0839H14.1654C14.8505 20.0839 14.8654 21 14.1654 21H11.8502C11.6052 21 11.4092 20.8259 11.4092 20.573V16.5786H11.4083Z" fill="white"/>
<path d="M15.5068 16.5786C15.5068 16.3476 15.7028 16.1516 15.9478 16.1516C16.1718 16.1516 16.3608 16.3485 16.3608 16.5786V20.0839H18.2639C18.949 20.0839 18.9639 21 18.2639 21H15.9486C15.7036 21 15.5076 20.8259 15.5076 20.573V16.5786H15.5068Z" fill="white"/>
<path d="M21.875 23.625H5.25V24.5H21.875C22.3563 24.5 22.75 24.1063 22.75 23.625V22.75C22.75 23.2313 22.3563 23.625 21.875 23.625Z" fill="#CAD1D8"/>
</g>
<defs>
<clipPath id="clip0_1702_11147">
<rect width="28" height="28" fill="white"/>
</clipPath>
</defs>
</svg>
