<svg width="28" height="28" viewBox="0 0 28 28" fill="none" xmlns="http://www.w3.org/2000/svg">
<g clip-path="url(#clip0_1702_11136)">
<path d="M7 0C6.0375 0 5.25 0.7875 5.25 1.75V26.25C5.25 27.2125 6.0375 28 7 28H24.5C25.4625 28 26.25 27.2125 26.25 26.25V7L19.25 0H7Z" fill="#E2E5E7"/>
<path d="M21 7H26.25L19.25 0V5.25C19.25 6.2125 20.0375 7 21 7Z" fill="#B0B7BD"/>
<path d="M26.25 12.25L21 7H26.25V12.25Z" fill="#CAD1D8"/>
<path d="M22.75 22.75C22.75 23.2312 22.3563 23.625 21.875 23.625H2.625C2.14375 23.625 1.75 23.2312 1.75 22.75V14C1.75 13.5187 2.14375 13.125 2.625 13.125H21.875C22.3563 13.125 22.75 13.5187 22.75 14V22.75Z" fill="#576D7E"/>
<path d="M4.879 21C4.648 21 4.396 20.8731 4.396 20.566V16.5926C4.396 16.3406 4.648 16.1586 4.879 16.1586H6.48112C9.67925 16.1586 9.60837 21 6.54412 21H4.879ZM5.32 17.0118V20.146H6.48112C8.37025 20.146 8.45425 17.0118 6.48112 17.0118H5.32Z" fill="white"/>
<path d="M10.7564 17.9288V20.517C10.7564 20.8259 10.5044 21 10.2533 21C10.0293 21 9.83325 20.8259 9.83325 20.517V16.5786C9.83325 16.2146 10.1421 16.0948 10.2533 16.0948C10.4554 16.0948 10.5744 16.2146 10.6934 16.3476L12.2334 18.4249L13.8276 16.2698C14.0595 15.9836 14.6256 16.0948 14.6256 16.5786V20.517C14.6256 20.8259 14.4288 21 14.2056 21C13.9545 21 13.7576 20.8259 13.7576 20.517V17.9288L12.5965 19.3979C12.3454 19.7068 12.0304 19.7068 11.7994 19.3979L10.7564 17.9288Z" fill="white"/>
<path d="M19.8905 20.4619C19.3935 20.874 18.7845 21.0499 18.1694 21.0499C16.6994 21.0499 15.6572 20.2099 15.6572 18.5448C15.6572 17.1316 16.7562 16.0335 18.2315 16.0335C18.7845 16.0335 19.3926 16.2225 19.8266 16.6495C20.2536 17.0686 19.6376 17.6916 19.2185 17.3215C18.9595 17.0686 18.5955 16.8805 18.2315 16.8805C17.3854 16.8805 16.5672 17.5586 16.5672 18.5448C16.5672 19.5808 17.2524 20.2099 18.1694 20.2099C18.5955 20.2099 18.9595 20.0839 19.2185 19.8949V19.0356H18.1694C17.5464 19.0356 17.6094 18.1808 18.1694 18.1808H19.5685C19.8275 18.1808 20.0646 18.3776 20.0646 18.5946V20.0848C20.0655 20.2099 20.0095 20.328 19.8905 20.4619Z" fill="white"/>
<path d="M21.875 23.625H5.25V24.5H21.875C22.3563 24.5 22.75 24.1063 22.75 23.625V22.75C22.75 23.2313 22.3563 23.625 21.875 23.625Z" fill="#CAD1D8"/>
</g>
<defs>
<clipPath id="clip0_1702_11136">
<rect width="28" height="28" fill="white"/>
</clipPath>
</defs>
</svg>
