<svg width="28" height="28" viewBox="0 0 28 28" fill="none" xmlns="http://www.w3.org/2000/svg">
<g clip-path="url(#clip0_1702_10846)">
<path d="M7 0C6.0375 0 5.25 0.7875 5.25 1.75V26.25C5.25 27.2125 6.0375 28 7 28H24.5C25.4625 28 26.25 27.2125 26.25 26.25V7L19.25 0H7Z" fill="#E2E5E7"/>
<path d="M21 7H26.25L19.25 0V5.25C19.25 6.2125 20.0375 7 21 7Z" fill="#B0B7BD"/>
<path d="M26.25 12.25L21 7H26.25V12.25Z" fill="#CAD1D8"/>
<path d="M22.75 22.75C22.75 23.2312 22.3563 23.625 21.875 23.625H2.625C2.14375 23.625 1.75 23.2312 1.75 22.75V14C1.75 13.5187 2.14375 13.125 2.625 13.125H21.875C22.3563 13.125 22.75 13.5187 22.75 14V22.75Z" fill="#F7B84E"/>
<path d="M6.37702 21C6.13202 21 5.94302 20.811 5.94302 20.566V16.5926C5.94302 16.3406 6.13202 16.1586 6.37702 16.1586H8.88827C9.53227 16.1586 9.51827 17.0677 8.88827 17.0677H6.87402V18.1177H8.63715C9.25927 18.1177 9.25927 19.0347 8.63715 19.0347H6.87402V20.0838H9.00815C9.64515 20.0838 9.69327 21 9.00815 21H6.37702Z" fill="white"/>
<path d="M10.4169 16.5786C10.4169 16.3476 10.5989 16.0947 10.8929 16.0947H12.5091C13.4191 16.0947 14.2381 16.7037 14.2381 17.8719C14.2381 18.9779 13.4191 19.593 12.5091 19.593H11.3409V20.517C11.3409 20.8259 11.1449 21 10.8929 21C10.6619 21 10.4169 20.8259 10.4169 20.517V16.5786ZM11.3409 16.9767V18.7189H12.5091C12.9781 18.7189 13.3491 18.3059 13.3491 17.8719C13.3491 17.3819 12.9781 16.9767 12.5091 16.9767H11.3409Z" fill="white"/>
<path d="M15.0281 17.2077C15.1891 15.8506 17.2384 15.6065 18.2044 16.3485C18.6804 16.7326 18.1764 17.3416 17.7564 17.0336C17.2384 16.7046 16.0633 16.5506 15.9163 17.2777C15.7273 18.4257 18.7705 17.7686 18.7215 19.6289C18.6725 21.406 16.0983 21.448 15.1323 20.65C14.9013 20.4619 14.9083 20.1547 15.0343 19.9649C15.2163 19.7837 15.4184 19.7207 15.6573 19.9159C16.2304 20.3079 17.7074 20.6019 17.8124 19.607C17.7214 18.5727 14.8111 19.1957 15.0281 17.2077Z" fill="white"/>
<path d="M21.875 23.625H5.25V24.5H21.875C22.3563 24.5 22.75 24.1063 22.75 23.625V22.75C22.75 23.2313 22.3563 23.625 21.875 23.625Z" fill="#CAD1D8"/>
</g>
<defs>
<clipPath id="clip0_1702_10846">
<rect width="28" height="28" fill="white"/>
</clipPath>
</defs>
</svg>
