<svg width="28" height="28" viewBox="0 0 28 28" fill="none" xmlns="http://www.w3.org/2000/svg">
<g clip-path="url(#clip0_1702_10803)">
<path d="M7 0C6.0375 0 5.25 0.7875 5.25 1.75V26.25C5.25 27.2125 6.0375 28 7 28H24.5C25.4625 28 26.25 27.2125 26.25 26.25V7L19.25 0H7Z" fill="#E2E5E7"/>
<path d="M21 7H26.25L19.25 0V5.25C19.25 6.2125 20.0375 7 21 7Z" fill="#B0B7BD"/>
<path d="M26.25 12.25L21 7H26.25V12.25Z" fill="#CAD1D8"/>
<path d="M22.75 22.75C22.75 23.2312 22.3563 23.625 21.875 23.625H2.625C2.14375 23.625 1.75 23.2312 1.75 22.75V14C1.75 13.5187 2.14375 13.125 2.625 13.125H21.875C22.3563 13.125 22.75 13.5187 22.75 14V22.75Z" fill="#F15642"/>
<path d="M6.7856 17.0686V18.1807H8.56973C8.82173 18.1807 9.07285 18.4327 9.07285 18.6769C9.07285 18.9079 8.82173 19.0969 8.56973 19.0969H6.7856V20.566C6.7856 20.811 6.6106 20.9991 6.36648 20.9991C6.05848 20.9991 5.86948 20.811 5.86948 20.566V16.5917C5.86948 16.3406 6.05935 16.1577 6.36648 16.1577H8.8226C9.1306 16.1577 9.3126 16.3406 9.3126 16.5917C9.3126 16.8157 9.1306 17.0677 8.8226 17.0677H6.7856V17.0686Z" fill="white"/>
<path d="M10.1622 16.5786C10.1622 16.3476 10.3582 16.1516 10.6032 16.1516C10.8272 16.1516 11.0162 16.3485 11.0162 16.5786V20.0839H12.9194C13.6045 20.0839 13.6194 21 12.9194 21H10.6041C10.3591 21 10.1631 20.8259 10.1631 20.5739V16.5786H10.1622Z" fill="white"/>
<path d="M14.3403 21C14.1163 20.874 13.9763 20.622 14.1163 20.328L16.1236 16.4045C16.3126 16.0335 16.8166 16.0195 16.9916 16.4045L18.9638 20.328C19.2508 20.874 18.4038 21.3071 18.1527 20.762L17.8438 20.1469H15.2626L14.9625 20.7629C14.8505 21 14.5915 21.0499 14.3403 21ZM17.3477 19.2237L16.5576 17.4947L15.6975 19.2237H17.3477Z" fill="white"/>
<path d="M21.875 23.625H5.25V24.5H21.875C22.3563 24.5 22.75 24.1063 22.75 23.625V22.75C22.75 23.2313 22.3563 23.625 21.875 23.625Z" fill="#CAD1D8"/>
</g>
<defs>
<clipPath id="clip0_1702_10803">
<rect width="28" height="28" fill="white"/>
</clipPath>
</defs>
</svg>
