<svg width="28" height="28" viewBox="0 0 28 28" fill="none" xmlns="http://www.w3.org/2000/svg">
<g clip-path="url(#clip0_1702_10825)">
<path d="M7 0C6.0375 0 5.25 0.7875 5.25 1.75V26.25C5.25 27.2125 6.0375 28 7 28H24.5C25.4625 28 26.25 27.2125 26.25 26.25V7L19.25 0H7Z" fill="#E2E5E7"/>
<path d="M21 7H26.25L19.25 0V5.25C19.25 6.2125 20.0375 7 21 7Z" fill="#B0B7BD"/>
<path d="M26.25 12.25L21 7H26.25V12.25Z" fill="#CAD1D8"/>
<path d="M22.75 22.75C22.75 23.2312 22.3563 23.625 21.875 23.625H2.625C2.14375 23.625 1.75 23.2312 1.75 22.75V14C1.75 13.5187 2.14375 13.125 2.625 13.125H21.875C22.3563 13.125 22.75 13.5187 22.75 14V22.75Z" fill="#F7B84E"/>
<path d="M7.29046 17.0677V18.1798H9.07459C9.32659 18.1798 9.57858 18.4318 9.57858 18.6768C9.57858 18.9078 9.32659 19.096 9.07459 19.096H7.29046V20.5651C7.29046 20.8101 7.11634 20.9991 6.87134 20.9991C6.56334 20.9991 6.37521 20.8101 6.37521 20.5651V16.5917C6.37521 16.3397 6.56421 16.1577 6.87134 16.1577H9.32746C9.63546 16.1577 9.81746 16.3397 9.81746 16.5917C9.81746 16.8157 9.63546 17.0668 9.32746 17.0668H7.29046V17.0677Z" fill="white"/>
<path d="M10.668 16.5786C10.668 16.3476 10.864 16.1516 11.109 16.1516C11.333 16.1516 11.522 16.3485 11.522 16.5786V20.0839H13.4251C14.1102 20.0839 14.1251 21 13.4251 21H11.1098C10.8648 21 10.6688 20.8259 10.6688 20.573V16.5786H10.668Z" fill="white"/>
<path d="M15.6887 20.6859L13.8416 16.8166C13.5686 16.2636 14.3946 15.8095 14.7017 16.3896L15.3247 17.7957L16.1288 19.6429L16.9189 17.7957L17.5419 16.3896C17.8219 15.8585 18.6331 16.1936 18.3959 16.7746L16.6118 20.6859C16.4508 21.1269 15.9538 21.231 15.6887 20.6859Z" fill="white"/>
<path d="M21.875 23.625H5.25V24.5H21.875C22.3563 24.5 22.75 24.1063 22.75 23.625V22.75C22.75 23.2313 22.3563 23.625 21.875 23.625Z" fill="#CAD1D8"/>
</g>
<defs>
<clipPath id="clip0_1702_10825">
<rect width="28" height="28" fill="white"/>
</clipPath>
</defs>
</svg>
