<svg width="28" height="28" viewBox="0 0 28 28" fill="none" xmlns="http://www.w3.org/2000/svg">
<g clip-path="url(#clip0_1702_10517)">
<path d="M7 0C6.0375 0 5.25 0.7875 5.25 1.75V26.25C5.25 27.2125 6.0375 28 7 28H24.5C25.4625 28 26.25 27.2125 26.25 26.25V7L19.25 0H7Z" fill="#E2E5E7"/>
<path d="M21 7H26.25L19.25 0V5.25C19.25 6.2125 20.0375 7 21 7Z" fill="#B0B7BD"/>
<path d="M26.25 12.25L21 7H26.25V12.25Z" fill="#CAD1D8"/>
<path d="M22.75 22.75C22.75 23.2312 22.3563 23.625 21.875 23.625H2.625C2.14375 23.625 1.75 23.2312 1.75 22.75V14C1.75 13.5187 2.14375 13.125 2.625 13.125H21.875C22.3563 13.125 22.75 13.5187 22.75 14V22.75Z" fill="#A066AA"/>
<path d="M10.9287 20.4619C10.4317 20.874 9.82274 21.0499 9.20761 21.0499C7.73761 21.0499 6.69549 20.2099 6.69549 18.5448C6.69549 17.1316 7.79449 16.0335 9.26974 16.0335C9.82274 16.0335 10.4309 16.2225 10.8649 16.6495C11.2919 17.0686 10.6759 17.6916 10.2567 17.3215C9.99774 17.0686 9.63374 16.8805 9.26974 16.8805C8.42361 16.8805 7.60549 17.5586 7.60549 18.5448C7.60549 19.5808 8.29061 20.2099 9.20761 20.2099C9.63374 20.2099 9.99774 20.0839 10.2567 19.8949V19.0356H9.20761C8.58461 19.0356 8.64761 18.1808 9.20761 18.1808H10.6067C10.8657 18.1808 11.1029 18.3776 11.1029 18.5946V20.0848C11.1029 20.2099 11.0477 20.328 10.9287 20.4619Z" fill="white"/>
<path d="M12.3016 16.5786C12.3016 16.0046 13.2256 15.9836 13.2256 16.5786V20.5721C13.2256 21.1531 12.3016 21.1671 12.3016 20.5721V16.5786Z" fill="white"/>
<path d="M15.3738 17.0678V18.1799H17.157C17.409 18.1799 17.661 18.4319 17.661 18.6769C17.661 18.9079 17.409 19.096 17.157 19.096H15.3738V20.5652C15.3738 20.8102 15.1988 20.9992 14.9538 20.9992C14.6458 20.9992 14.4576 20.8102 14.4576 20.5652V16.5918C14.4576 16.3398 14.6466 16.1578 14.9538 16.1578H17.4099C17.7179 16.1578 17.8999 16.3398 17.8999 16.5918C17.8999 16.8158 17.7179 17.0669 17.4099 17.0669H15.3738V17.0678Z" fill="white"/>
<path d="M21.875 23.625H5.25V24.5H21.875C22.3563 24.5 22.75 24.1063 22.75 23.625V22.75C22.75 23.2313 22.3563 23.625 21.875 23.625Z" fill="#CAD1D8"/>
</g>
<defs>
<clipPath id="clip0_1702_10517">
<rect width="28" height="28" fill="white"/>
</clipPath>
</defs>
</svg>
