<svg width="28" height="28" viewBox="0 0 28 28" fill="none" xmlns="http://www.w3.org/2000/svg">
<g clip-path="url(#clip0_1702_11211)">
<path d="M6.75 0C5.7875 0 5 0.7875 5 1.75V26.25C5 27.2125 5.7875 28 6.75 28H24.25C25.2125 28 26 27.2125 26 26.25V7L19 0H6.75Z" fill="#E2E5E7"/>
<path d="M21 7H26.25L19.25 0V5.25C19.25 6.2125 20.0375 7 21 7Z" fill="#B0B7BD"/>
<path d="M26.25 12.25L21 7H26.25V12.25Z" fill="#CAD1D8"/>
<path d="M22.75 22.75C22.75 23.2312 22.3563 23.625 21.875 23.625H2.625C2.14375 23.625 1.75 23.2312 1.75 22.75V14C1.75 13.5187 2.14375 13.125 2.625 13.125H21.875C22.3563 13.125 22.75 13.5187 22.75 14V22.75Z" fill="#84BD5A"/>
<path d="M3.04498 20.566V16.5926C3.04498 16.3406 3.22698 16.1586 3.54111 16.1586C3.78611 16.1586 3.96811 16.3406 3.96811 16.5926V18.1178H6.24836V16.5926C6.24836 16.3406 6.47236 16.1586 6.72436 16.1586C6.96936 16.1586 7.15836 16.3406 7.15836 16.5926V20.566C7.15836 20.811 6.96936 21 6.72436 21C6.47236 21 6.24836 20.811 6.24836 20.566V19.0348H3.96811V20.566C3.96811 20.811 3.78611 21 3.54111 21C3.22698 21 3.04498 20.811 3.04498 20.566Z" fill="white"/>
<path d="M9.44909 17.0336H8.22497C7.61597 17.0336 7.61597 16.1385 8.22497 16.1385H11.5333C12.1563 16.1385 12.1563 17.0336 11.5333 17.0336H10.3722V20.566C10.3722 21.1741 9.44822 21.189 9.44822 20.566V17.0336H9.44909Z" fill="white"/>
<path d="M13.6001 17.9288V20.517C13.6001 20.8259 13.3481 21 13.097 21C12.873 21 12.677 20.8259 12.677 20.517V16.5786C12.677 16.2146 12.9859 16.0948 13.097 16.0948C13.2991 16.0948 13.4181 16.2146 13.5371 16.3476L15.0771 18.4249L16.6714 16.2698C16.9033 15.9836 17.4694 16.0948 17.4694 16.5786V20.517C17.4694 20.8259 17.2725 21 17.0494 21C16.7983 21 16.6014 20.8259 16.6014 20.517V17.9288L15.4403 19.3979C15.1891 19.7068 14.8741 19.7068 14.6431 19.3979L13.6001 17.9288Z" fill="white"/>
<path d="M18.4441 16.5786C18.4441 16.3476 18.6401 16.1516 18.8851 16.1516C19.1091 16.1516 19.2981 16.3485 19.2981 16.5786V20.0839H21.2012C21.8863 20.0839 21.9012 21 21.2012 21H18.886C18.641 21 18.445 20.8259 18.445 20.573V16.5786H18.4441Z" fill="white"/>
<path d="M21.875 23.625H5.25V24.5H21.875C22.3563 24.5 22.75 24.1063 22.75 23.625V22.75C22.75 23.2313 22.3563 23.625 21.875 23.625Z" fill="#CAD1D8"/>
</g>
<defs>
<clipPath id="clip0_1702_11211">
<rect width="28" height="28" fill="white"/>
</clipPath>
</defs>
</svg>
