<svg width="28" height="28" viewBox="0 0 28 28" fill="none" xmlns="http://www.w3.org/2000/svg">
<g clip-path="url(#clip0_1702_11114)">
<path d="M7 0C6.0375 0 5.25 0.7875 5.25 1.75V26.25C5.25 27.2134 6.0375 28 7 28H24.5C25.4625 28 26.25 27.2134 26.25 26.25V7L19.25 0H7Z" fill="#E2E5E7"/>
<path d="M21 7H26.25L19.25 0V5.25C19.25 6.2125 20.0375 7 21 7Z" fill="#B0B7BD"/>
<path d="M26.25 12.25L21 7H26.25V12.25Z" fill="#CAD1D8"/>
<path d="M22.75 22.75C22.75 23.2312 22.3563 23.625 21.875 23.625H2.625C2.14375 23.625 1.75 23.2312 1.75 22.75V14C1.75 13.5187 2.14375 13.125 2.625 13.125H21.875C22.3563 13.125 22.75 13.5187 22.75 14V22.75Z" fill="#A066AA"/>
<path d="M3.63124 16.5786C3.63124 16.0046 4.55436 15.9836 4.55436 16.5786V20.573C4.55436 21.1531 3.63124 21.168 3.63124 20.573V16.5786Z" fill="white"/>
<path d="M5.79512 16.6486C5.79512 16.3966 5.85112 16.1516 6.21425 16.1516C6.46625 16.1516 6.52225 16.2146 6.71125 16.3966L9.0265 19.2929V16.5786C9.0265 16.3476 9.22862 16.0956 9.4675 16.0956C9.71862 16.0956 9.96362 16.3476 9.96362 16.5786V20.517C9.96362 20.8259 9.77462 20.944 9.59262 21C9.3485 21 9.22862 20.9449 9.0265 20.7559L6.71125 17.8167V20.517C6.71125 20.8259 6.52225 21 6.27025 21C6.01825 21 5.79512 20.8259 5.79512 20.517V16.6486Z" fill="white"/>
<path d="M11.662 21C11.431 21 11.179 20.874 11.179 20.5668V16.5926C11.179 16.3406 11.431 16.1586 11.662 16.1586H13.2641C16.4614 16.1586 16.3914 21 13.3271 21H11.662ZM12.103 17.0117V20.146H13.2641C15.1533 20.146 15.2373 17.0117 13.2641 17.0117H12.103Z" fill="white"/>
<path d="M17.0948 21C16.8638 21 16.6118 20.874 16.6118 20.5668V16.5926C16.6118 16.3406 16.8638 16.1586 17.0948 16.1586H18.697C21.8942 16.1586 21.8242 21 18.76 21H17.0948ZM17.5358 17.0117V20.146H18.697C20.5861 20.146 20.6701 17.0117 18.697 17.0117H17.5358Z" fill="white"/>
<path d="M21.875 23.625H5.25V24.5H21.875C22.3563 24.5 22.75 24.1063 22.75 23.625V22.75C22.75 23.2313 22.3563 23.625 21.875 23.625Z" fill="#CAD1D8"/>
</g>
<defs>
<clipPath id="clip0_1702_11114">
<rect width="28" height="28" fill="white"/>
</clipPath>
</defs>
</svg>
