<svg width="28" height="28" viewBox="0 0 28 28" fill="none" xmlns="http://www.w3.org/2000/svg">
<g clip-path="url(#clip0_1702_11158)">
<path d="M7 0C6.0375 0 5.25 0.7875 5.25 1.75V26.25C5.25 27.2125 6.0375 28 7 28H24.5C25.4625 28 26.25 27.2125 26.25 26.25V7L19.25 0H7Z" fill="#E2E5E7"/>
<path d="M21 7H26.25L19.25 0V5.25C19.25 6.2125 20.0375 7 21 7Z" fill="#B0B7BD"/>
<path d="M26.25 12.25L21 7H26.25V12.25Z" fill="#CAD1D8"/>
<path d="M22.75 22.75C22.75 23.2312 22.3563 23.625 21.875 23.625H2.625C2.14375 23.625 1.75 23.2312 1.75 22.75V14C1.75 13.5187 2.14375 13.125 2.625 13.125H21.875C22.3563 13.125 22.75 13.5187 22.75 14V22.75Z" fill="#50BEE8"/>
<path d="M6.53632 16.5786C6.53632 16.0046 7.46032 15.9836 7.46032 16.5786V20.5721C7.46032 21.1531 6.53632 21.1671 6.53632 20.5721V16.5786Z" fill="white"/>
<path d="M8.56541 17.2077C8.72641 15.8506 10.7757 15.6065 11.7417 16.3485C12.2177 16.7326 11.7137 17.3416 11.2937 17.0336C10.7757 16.7046 9.60054 16.5506 9.45354 17.2777C9.26454 18.4257 12.3078 17.7686 12.2588 19.6289C12.2098 21.406 9.63554 21.448 8.66954 20.65C8.43766 20.4619 8.44554 20.1547 8.57154 19.9649C8.75354 19.7837 8.95566 19.7207 9.19454 19.9159C9.76766 20.3079 11.2447 20.6019 11.3488 19.607C11.2587 18.5727 8.34841 19.1957 8.56541 17.2077Z" fill="white"/>
<path d="M15.6311 21.07C14.3369 21.126 12.9929 20.265 12.9929 18.5509C12.9929 16.8297 14.3361 15.9836 15.6311 15.9836C16.8552 16.0457 18.1353 16.8927 18.1353 18.5509C18.1362 20.2099 16.8561 21.07 15.6311 21.07ZM15.5541 16.8936C14.7701 16.8936 13.9169 17.4466 13.9169 18.5517C13.9169 19.6507 14.7709 20.2107 15.5541 20.2107C16.3591 20.2107 17.2192 19.6507 17.2192 18.5517C17.2201 17.4457 16.3591 16.8936 15.5541 16.8936Z" fill="white"/>
<path d="M21.875 23.625H5.25V24.5H21.875C22.3563 24.5 22.75 24.1063 22.75 23.625V22.75C22.75 23.2313 22.3563 23.625 21.875 23.625Z" fill="#CAD1D8"/>
</g>
<defs>
<clipPath id="clip0_1702_11158">
<rect width="28" height="28" fill="white"/>
</clipPath>
</defs>
</svg>
