<svg width="28" height="28" viewBox="0 0 28 28" fill="none" xmlns="http://www.w3.org/2000/svg">
<g clip-path="url(#clip0_1702_10473)">
<path d="M7 0C6.0375 0 5.25 0.7875 5.25 1.75V26.25C5.25 27.2125 6.0375 28 7 28H24.5C25.4625 28 26.25 27.2125 26.25 26.25V7L19.25 0H7Z" fill="#E2E5E7"/>
<path d="M21 7H26.25L19.25 0V5.25C19.25 6.2125 20.0375 7 21 7Z" fill="#B0B7BD"/>
<path d="M26.25 12.25L21 7H26.25V12.25Z" fill="#CAD1D8"/>
<path d="M22.75 22.75C22.75 23.2312 22.3563 23.625 21.875 23.625H2.625C2.14375 23.625 1.75 23.2312 1.75 22.75V14C1.75 13.5187 2.14375 13.125 2.625 13.125H21.875C22.3563 13.125 22.75 13.5187 22.75 14V22.75Z" fill="#50BEE8"/>
<path d="M7.76388 16.5786C7.76388 15.9906 8.68788 15.9906 8.68788 16.5786V19.3419C8.68788 20.4409 8.16288 21.1059 6.95276 21.1059C6.35776 21.1059 5.86163 20.944 5.42763 20.3849C5.07063 19.9579 5.74263 19.3428 6.10663 19.7899C6.40063 20.1539 6.71563 20.2379 7.02276 20.2239C7.41388 20.2099 7.75776 20.034 7.76476 19.3419V16.5786H7.76388Z" fill="white"/>
<path d="M9.91725 16.5786C9.91725 16.3476 10.0993 16.0956 10.3933 16.0956H12.0094C12.9194 16.0956 13.7384 16.7046 13.7384 17.8719C13.7384 18.9779 12.9194 19.5939 12.0094 19.5939H10.8413V20.5179C10.8413 20.8259 10.6453 21 10.3933 21C10.1623 21 9.91725 20.8259 9.91725 20.5179V16.5786ZM10.8413 16.9767V18.7197H12.0094C12.4784 18.7197 12.8494 18.3059 12.8494 17.8719C12.8494 17.3827 12.4784 16.9767 12.0094 16.9767H10.8413Z" fill="white"/>
<path d="M18.7346 20.4619C18.2376 20.8749 17.6286 21.0499 17.0135 21.0499C15.5435 21.0499 14.5014 20.2107 14.5014 18.5447C14.5014 17.1325 15.6004 16.0344 17.0756 16.0344C17.6286 16.0344 18.2368 16.2225 18.6708 16.6495C19.0969 17.0686 18.4818 17.6916 18.0626 17.3215C17.8036 17.0695 17.4396 16.8805 17.0756 16.8805C16.2295 16.8805 15.4114 17.5586 15.4114 18.5447C15.4114 19.5807 16.0965 20.2107 17.0135 20.2107C17.4396 20.2107 17.8036 20.0839 18.0626 19.8957V19.0356H17.0135C16.3905 19.0356 16.4535 18.1816 17.0135 18.1816H18.4126C18.6716 18.1816 18.9088 18.3776 18.9088 18.5946V20.0847C18.9088 20.2107 18.8536 20.328 18.7346 20.4619Z" fill="white"/>
<path d="M21.875 23.625H5.25V24.5H21.875C22.3563 24.5 22.75 24.1063 22.75 23.625V22.75C22.75 23.2313 22.3563 23.625 21.875 23.625Z" fill="#CAD1D8"/>
</g>
<defs>
<clipPath id="clip0_1702_10473">
<rect width="28" height="28" fill="white"/>
</clipPath>
</defs>
</svg>
