<svg width="28" height="28" viewBox="0 0 28 28" fill="none" xmlns="http://www.w3.org/2000/svg">
<g clip-path="url(#clip0_1702_11179)">
<path d="M7 0C6.0375 0 5.25 0.7875 5.25 1.75V26.25C5.25 27.2125 6.0375 28 7 28H24.5C25.4625 28 26.25 27.2125 26.25 26.25V7L19.25 0H7Z" fill="#E2E5E7"/>
<path d="M21 7H26.25L19.25 0V5.25C19.25 6.2125 20.0375 7 21 7Z" fill="#B0B7BD"/>
<path d="M26.25 12.25L21 7H26.25V12.25Z" fill="#CAD1D8"/>
<path d="M22.75 22.75C22.75 23.2312 22.3563 23.625 21.875 23.625H2.625C2.14375 23.625 1.75 23.2312 1.75 22.75V14C1.75 13.5187 2.14375 13.125 2.625 13.125H21.875C22.3563 13.125 22.75 13.5187 22.75 14V22.75Z" fill="#576D7E"/>
<path d="M10.5954 16.5786C10.5954 15.9906 11.5194 15.9906 11.5194 16.5786V19.3419C11.5194 20.44 10.9944 21.105 9.78511 21.105C9.19011 21.105 8.69311 20.9431 8.25999 20.3849C7.90299 19.9579 8.57411 19.3427 8.93811 19.7899C9.23211 20.1539 9.54624 20.2379 9.85423 20.223C10.2462 20.209 10.5892 20.034 10.5962 19.3419V16.5786H10.5954Z" fill="white"/>
<path d="M12.593 17.2077C12.754 15.8506 14.8032 15.6065 15.7692 16.3485C16.2452 16.7326 15.7412 17.3416 15.3212 17.0336C14.8032 16.7046 13.6281 16.5506 13.4811 17.2777C13.2921 18.4257 16.3353 17.7686 16.2863 19.6289C16.2373 21.406 13.6631 21.448 12.6971 20.65C12.4661 20.4619 12.4731 20.1547 12.5991 19.9649C12.7811 19.7837 12.9832 19.7207 13.2221 19.9159C13.7952 20.3079 15.2722 20.6019 15.3772 19.607C15.2862 18.5727 12.376 19.1957 12.593 17.2077Z" fill="white"/>
<path d="M21.875 23.625H5.25V24.5H21.875C22.3563 24.5 22.75 24.1063 22.75 23.625V22.75C22.75 23.2313 22.3563 23.625 21.875 23.625Z" fill="#CAD1D8"/>
</g>
<defs>
<clipPath id="clip0_1702_11179">
<rect width="28" height="28" fill="white"/>
</clipPath>
</defs>
</svg>
