<svg width="28" height="28" viewBox="0 0 28 28" fill="none" xmlns="http://www.w3.org/2000/svg">
<g clip-path="url(#clip0_1702_10715)">
<path d="M7 0C6.0375 0 5.25 0.7875 5.25 1.75V26.25C5.25 27.2125 6.0375 28 7 28H24.5C25.4625 28 26.25 27.2125 26.25 26.25V7L19.25 0H7Z" fill="#E2E5E7"/>
<path d="M21 7H26.25L19.25 0V5.25C19.25 6.2125 20.0375 7 21 7Z" fill="#B0B7BD"/>
<path d="M26.25 12.25L21 7H26.25V12.25Z" fill="#CAD1D8"/>
<path d="M22.75 22.75C22.75 23.2312 22.3563 23.625 21.875 23.625H2.625C2.14375 23.625 1.75 23.2312 1.75 22.75V14C1.75 13.5187 2.14375 13.125 2.625 13.125H21.875C22.3563 13.125 22.75 13.5187 22.75 14V22.75Z" fill="#A066AA"/>
<path d="M5.85902 17.9288V20.517C5.85902 20.8259 5.60702 21 5.35502 21C5.13102 21 4.9359 20.8259 4.9359 20.517V16.5786C4.9359 16.2146 5.2439 16.0948 5.35502 16.0948C5.55802 16.0948 5.67702 16.2146 5.79602 16.3476L7.33515 18.4249L8.93027 16.2698C9.16127 15.9836 9.7274 16.0948 9.7274 16.5786V20.517C9.7274 20.8259 9.53227 21 9.30827 21C9.05627 21 8.86027 20.8259 8.86027 20.517V17.9288L7.69915 19.3979C7.44715 19.7068 7.13302 19.7068 6.90115 19.3979L5.85902 17.9288Z" fill="white"/>
<path d="M10.9716 16.5786C10.9716 16.0046 11.8956 15.9836 11.8956 16.5786V20.5721C11.8956 21.1531 10.9716 21.1671 10.9716 20.5721V16.5786Z" fill="white"/>
<path d="M13.615 21C13.384 21 13.132 20.8731 13.132 20.566V16.5926C13.132 16.3406 13.384 16.1586 13.615 16.1586H15.2171C18.4144 16.1586 18.3444 21 15.2801 21H13.615ZM14.0551 17.0118V20.146H15.2163C17.1054 20.146 17.1894 17.0118 15.2163 17.0118H14.0551Z" fill="white"/>
<path d="M18.5912 16.5786C18.5912 16.0046 19.5152 15.9836 19.5152 16.5786V20.5721C19.5152 21.1531 18.5912 21.1671 18.5912 20.5721V16.5786Z" fill="white"/>
<path d="M21.875 23.625H5.25V24.5H21.875C22.3563 24.5 22.75 24.1063 22.75 23.625V22.75C22.75 23.2313 22.3563 23.625 21.875 23.625Z" fill="#CAD1D8"/>
</g>
<defs>
<clipPath id="clip0_1702_10715">
<rect width="28" height="28" fill="white"/>
</clipPath>
</defs>
</svg>
