<svg width="28" height="28" viewBox="0 0 28 28" fill="none" xmlns="http://www.w3.org/2000/svg">
<g clip-path="url(#clip0_1702_10748)">
<path d="M7 0C6.0375 0 5.25 0.7875 5.25 1.75V26.25C5.25 27.2125 6.0375 28 7 28H24.5C25.4625 28 26.25 27.2125 26.25 26.25V7L19.25 0H7Z" fill="#E2E5E7"/>
<path d="M21 7H26.25L19.25 0V5.25C19.25 6.2125 20.0375 7 21 7Z" fill="#B0B7BD"/>
<path d="M26.25 12.25L21 7H26.25V12.25Z" fill="#CAD1D8"/>
<path d="M22.75 22.75C22.75 23.2312 22.3563 23.625 21.875 23.625H2.625C2.14375 23.625 1.75 23.2312 1.75 22.75V14C1.75 13.5187 2.14375 13.125 2.625 13.125H21.875C22.3563 13.125 22.75 13.5187 22.75 14V22.75Z" fill="#50BEE8"/>
<path d="M5.30074 17.9288V20.517C5.30074 20.8259 5.04874 21 4.79674 21C4.57274 21 4.37674 20.8259 4.37674 20.517V16.5786C4.37674 16.2146 4.68474 16.0948 4.79674 16.0948C4.99886 16.0948 5.11786 16.2146 5.23774 16.3476L6.77599 18.4249L8.37112 16.2698C8.60299 15.9836 9.16912 16.0948 9.16912 16.5786V20.517C9.16912 20.8259 8.97399 21 8.74999 21C8.49799 21 8.30199 20.8259 8.30199 20.517V17.9288L7.13999 19.3979C6.88886 19.7068 6.57387 19.7068 6.34287 19.3979L5.30074 17.9288Z" fill="white"/>
<path d="M12.8021 21.07C11.508 21.126 10.164 20.265 10.164 18.5509C10.164 16.8298 11.5071 15.9836 12.8021 15.9836C14.0263 16.0458 15.3064 16.8928 15.3064 18.5509C15.3064 20.2099 14.0263 21.07 12.8021 21.07ZM12.7251 16.8936C11.9411 16.8936 11.088 17.4466 11.088 18.5518C11.088 19.6508 11.942 20.2108 12.7251 20.2108C13.5301 20.2108 14.3903 19.6508 14.3903 18.5518C14.3903 17.4458 13.5301 16.8936 12.7251 16.8936Z" fill="white"/>
<path d="M17.7004 20.6859L15.8533 16.8166C15.5803 16.2636 16.4063 15.8095 16.7134 16.3896L17.3364 17.7958L18.1405 19.6429L18.9306 17.7958L19.5536 16.3896C19.8336 15.8585 20.6448 16.1936 20.4076 16.7746L18.6235 20.6859C18.4625 21.1269 17.9655 21.231 17.7004 20.6859Z" fill="white"/>
<path d="M21.875 23.625H5.25V24.5H21.875C22.3563 24.5 22.75 24.1063 22.75 23.625V22.75C22.75 23.2313 22.3563 23.625 21.875 23.625Z" fill="#CAD1D8"/>
</g>
<defs>
<clipPath id="clip0_1702_10748">
<rect width="28" height="28" fill="white"/>
</clipPath>
</defs>
</svg>
