<svg width="28" height="28" viewBox="0 0 28 28" fill="none" xmlns="http://www.w3.org/2000/svg">
<g clip-path="url(#clip0_1702_10528)">
<path d="M7 0C6.0375 0 5.25 0.7875 5.25 1.75V26.25C5.25 27.2134 6.0375 28 7 28H24.5C25.4625 28 26.25 27.2134 26.25 26.25V7L19.25 0H7Z" fill="#E2E5E7"/>
<path d="M21 7H26.25L19.25 0V5.25C19.25 6.2125 20.0375 7 21 7Z" fill="#B0B7BD"/>
<path d="M26.25 12.25L21 7H26.25V12.25Z" fill="#CAD1D8"/>
<path d="M22.75 22.75C22.75 23.2312 22.3563 23.625 21.875 23.625H2.625C2.14375 23.625 1.75 23.2312 1.75 22.75V14C1.75 13.5187 2.14375 13.125 2.625 13.125H21.875C22.3563 13.125 22.75 13.5187 22.75 14V22.75Z" fill="#50BEE8"/>
<path d="M6.40848 17.9287V20.5179C6.40848 20.8259 6.15735 21.0009 5.90448 21.0009C5.68048 21.0009 5.48535 20.8259 5.48535 20.5179V16.5786C5.48535 16.2155 5.79335 16.0956 5.90448 16.0956C6.10748 16.0956 6.22648 16.2155 6.34548 16.3476L7.88548 18.4257L9.47973 16.2706C9.7116 15.9836 10.2777 16.0956 10.2777 16.5786V20.5179C10.2777 20.8259 10.0809 21.0009 9.85773 21.0009C9.6066 21.0009 9.40973 20.8259 9.40973 20.5179V17.9287L8.2486 19.3987C7.99748 19.7067 7.68248 19.7067 7.45148 19.3987L6.40848 17.9287Z" fill="white"/>
<path d="M11.5001 16.5786C11.5001 16.3476 11.6821 16.0956 11.9761 16.0956H13.5922C14.5022 16.0956 15.3212 16.7046 15.3212 17.8727C15.3212 18.9787 14.5022 19.5939 13.5922 19.5939H12.4241V20.5179C12.4241 20.8259 12.2281 21.0009 11.9761 21.0009C11.7451 21.0009 11.5001 20.8259 11.5001 20.5179V16.5786ZM12.4232 16.9776V18.7197H13.5913C14.0603 18.7197 14.4313 18.3067 14.4313 17.8727C14.4313 17.3827 14.0603 16.9776 13.5913 16.9776H12.4232Z" fill="white"/>
<path d="M17.6129 17.0336H16.4168C15.8296 17.0336 15.8646 16.1595 16.4168 16.1595H18.5579C18.984 16.1595 19.18 16.6495 18.8659 16.9645L17.7048 18.0486C18.5588 17.9856 19.2299 18.6217 19.2299 19.4057C19.2299 20.2659 18.6209 21.0009 17.3408 21.0009C16.7808 21.0009 16.2286 20.7699 15.9066 20.2659C15.5706 19.7697 16.2908 19.2937 16.6688 19.7829C16.8508 20.0209 17.1448 20.1399 17.4589 20.1399C17.8859 20.1399 18.3059 19.9579 18.3059 19.4049C18.3059 18.6777 17.4169 18.7897 16.9348 18.8387C16.3468 18.9507 16.1726 18.3137 16.5156 18.0486L17.6129 17.0336Z" fill="white"/>
<path d="M21.875 23.625H5.25V24.5H21.875C22.3563 24.5 22.75 24.1063 22.75 23.625V22.75C22.75 23.2313 22.3563 23.625 21.875 23.625Z" fill="#CAD1D8"/>
</g>
<defs>
<clipPath id="clip0_1702_10528">
<rect width="28" height="28" fill="white"/>
</clipPath>
</defs>
</svg>
