<svg width="28" height="28" viewBox="0 0 28 28" fill="none" xmlns="http://www.w3.org/2000/svg">
<g clip-path="url(#clip0_1702_10726)">
<path d="M7 0C6.0375 0 5.25 0.7875 5.25 1.75V26.25C5.25 27.2125 6.0375 28 7 28H24.5C25.4625 28 26.25 27.2125 26.25 26.25V7L19.25 0H7Z" fill="#E2E5E7"/>
<path d="M21 7H26.25L19.25 0V5.25C19.25 6.2125 20.0375 7 21 7Z" fill="#B0B7BD"/>
<path d="M26.25 12.25L21 7H26.25V12.25Z" fill="#CAD1D8"/>
<path d="M22.75 22.75C22.75 23.2312 22.3563 23.625 21.875 23.625H2.625C2.14375 23.625 1.75 23.2312 1.75 22.75V14C1.75 13.5187 2.14375 13.125 2.625 13.125H21.875C22.3563 13.125 22.75 13.5187 22.75 14V22.75Z" fill="#F7B84E"/>
<path d="M5.65512 17.9288V20.517C5.65512 20.8259 5.40399 21 5.15112 21C4.92712 21 4.73199 20.8259 4.73199 20.517V16.5786C4.73199 16.2146 5.03999 16.0948 5.15112 16.0948C5.35412 16.0948 5.47312 16.2146 5.59212 16.3476L7.13212 18.4249L8.72637 16.2698C8.95824 15.9836 9.52437 16.0948 9.52437 16.5786V20.517C9.52437 20.8259 9.32749 21 9.10349 21C8.85237 21 8.65549 20.8259 8.65549 20.517V17.9288L7.49437 19.3979C7.24324 19.7068 6.92824 19.7068 6.69724 19.3979L5.65512 17.9288Z" fill="white"/>
<path d="M10.7458 16.5786C10.7458 16.3476 10.9278 16.0948 11.2218 16.0948H12.838C13.748 16.0948 14.567 16.7038 14.567 17.8719C14.567 18.9779 13.748 19.593 12.838 19.593H11.6698V20.517C11.6698 20.8259 11.4738 21 11.2218 21C10.9908 21 10.7458 20.8259 10.7458 20.517V16.5786ZM11.6698 16.9768V18.7189H12.838C13.307 18.7189 13.678 18.3059 13.678 17.8719C13.678 17.3819 13.307 16.9768 12.838 16.9768H11.6698Z" fill="white"/>
<path d="M19.5632 20.4619C19.0662 20.874 18.4572 21.0499 17.8421 21.0499C16.3721 21.0499 15.33 20.2099 15.33 18.5448C15.33 17.1316 16.429 16.0335 17.9042 16.0335C18.4572 16.0335 19.0654 16.2225 19.4994 16.6495C19.9255 17.0686 19.3104 17.6916 18.8912 17.3215C18.6322 17.0686 18.2682 16.8805 17.9042 16.8805C17.0581 16.8805 16.24 17.5586 16.24 18.5448C16.24 19.5808 16.9251 20.2099 17.8421 20.2099C18.2682 20.2099 18.6322 20.0839 18.8912 19.8949V19.0356H17.8421C17.2191 19.0356 17.2821 18.1808 17.8421 18.1808H19.2412C19.5002 18.1808 19.7374 18.3776 19.7374 18.5946V20.0848C19.7382 20.2099 19.6822 20.328 19.5632 20.4619Z" fill="white"/>
<path d="M21.875 23.625H5.25V24.5H21.875C22.3563 24.5 22.75 24.1063 22.75 23.625V22.75C22.75 23.2313 22.3563 23.625 21.875 23.625Z" fill="#CAD1D8"/>
</g>
<defs>
<clipPath id="clip0_1702_10726">
<rect width="28" height="28" fill="white"/>
</clipPath>
</defs>
</svg>
