<svg width="28" height="28" viewBox="0 0 28 28" fill="none" xmlns="http://www.w3.org/2000/svg">
<g clip-path="url(#clip0_1702_11190)">
<path d="M7 0C6.0375 0 5.25 0.7875 5.25 1.75V26.25C5.25 27.2125 6.0375 28 7 28H24.5C25.4625 28 26.25 27.2125 26.25 26.25V7L19.25 0H7Z" fill="#E2E5E7"/>
<path d="M21 7H26.25L19.25 0V5.25C19.25 6.2125 20.0375 7 21 7Z" fill="#B0B7BD"/>
<path d="M26.25 12.25L21 7H26.25V12.25Z" fill="#CAD1D8"/>
<path d="M22.75 22.75C22.75 23.2312 22.3563 23.625 21.875 23.625H2.625C2.14375 23.625 1.75 23.2312 1.75 22.75V14C1.75 13.5187 2.14375 13.125 2.625 13.125H21.875C22.3563 13.125 22.75 13.5187 22.75 14V22.75Z" fill="#576D7E"/>
<path d="M5.62802 16.5786C5.62802 16.3476 5.81002 16.0948 6.10402 16.0948H7.72015C8.63014 16.0948 9.44914 16.7038 9.44914 17.8719C9.44914 18.9779 8.63014 19.593 7.72015 19.593H6.55115V20.517C6.55115 20.8259 6.35602 21 6.10402 21C5.87302 21 5.62802 20.8259 5.62802 20.517V16.5786ZM6.55115 16.9768V18.7189H7.71927C8.18827 18.7189 8.55927 18.3059 8.55927 17.8719C8.55927 17.3819 8.18827 16.9768 7.71927 16.9768H6.55115Z" fill="white"/>
<path d="M10.1982 20.566V16.5926C10.1982 16.3406 10.3802 16.1586 10.6952 16.1586C10.9393 16.1586 11.1213 16.3406 11.1213 16.5926V18.1178H13.4015V16.5926C13.4015 16.3406 13.6255 16.1586 13.8775 16.1586C14.1217 16.1586 14.3115 16.3406 14.3115 16.5926V20.566C14.3115 20.811 14.1217 21 13.8775 21C13.6255 21 13.4015 20.811 13.4015 20.566V19.0348H11.1213V20.566C11.1213 20.811 10.9393 21 10.6952 21C10.3802 21 10.1982 20.811 10.1982 20.566Z" fill="white"/>
<path d="M15.2941 16.5786C15.2941 16.3476 15.4761 16.0948 15.7701 16.0948H17.3862C18.2962 16.0948 19.1152 16.7038 19.1152 17.8719C19.1152 18.9779 18.2962 19.593 17.3862 19.593H16.2181V20.517C16.2181 20.8259 16.0221 21 15.7701 21C15.5391 21 15.2941 20.8259 15.2941 20.517V16.5786ZM16.2181 16.9768V18.7189H17.3862C17.8552 18.7189 18.2262 18.3059 18.2262 17.8719C18.2262 17.3819 17.8552 16.9768 17.3862 16.9768H16.2181Z" fill="white"/>
<path d="M21.875 23.625H5.25V24.5H21.875C22.3563 24.5 22.75 24.1063 22.75 23.625V22.75C22.75 23.2313 22.3563 23.625 21.875 23.625Z" fill="#CAD1D8"/>
</g>
<defs>
<clipPath id="clip0_1702_11190">
<rect width="28" height="28" fill="white"/>
</clipPath>
</defs>
</svg>
