<svg width="28" height="28" viewBox="0 0 28 28" fill="none" xmlns="http://www.w3.org/2000/svg">
<g clip-path="url(#clip0_1702_10484)">
<path d="M7 0C6.0375 0 5.25 0.7875 5.25 1.75V26.25C5.25 27.2125 6.0375 28 7 28H24.5C25.4625 28 26.25 27.2125 26.25 26.25V7L19.25 0H7Z" fill="#E2E5E7"/>
<path d="M21 7H26.25L19.25 0V5.25C19.25 6.2125 20.0375 7 21 7Z" fill="#B0B7BD"/>
<path d="M26.25 12.25L21 7H26.25V12.25Z" fill="#CAD1D8"/>
<path d="M22.75 22.75C22.75 23.2312 22.3563 23.625 21.875 23.625H2.625C2.14375 23.625 1.75 23.2312 1.75 22.75V14C1.75 13.5187 2.14375 13.125 2.625 13.125H21.875C22.3563 13.125 22.75 13.5187 22.75 14V22.75Z" fill="#A066AA"/>
<path d="M5.07587 16.5786C5.07587 16.3476 5.25699 16.0948 5.55099 16.0948H7.16799C8.07712 16.0948 8.89611 16.7038 8.89611 17.8719C8.89611 18.9779 8.07712 19.593 7.16799 19.593H5.99812V20.517C5.99812 20.8259 5.80387 21 5.55099 21C5.31999 21 5.07587 20.8259 5.07587 20.517V16.5786ZM5.99812 16.9768V18.7189H7.16712C7.63524 18.7189 8.00624 18.3059 8.00624 17.8719C8.00624 17.3819 7.63524 16.9768 7.16712 16.9768H5.99812Z" fill="white"/>
<path d="M9.78774 16.6486C9.78774 16.3958 9.84374 16.1516 10.2077 16.1516C10.4589 16.1516 10.5157 16.2146 10.7039 16.3958L13.0191 19.2929V16.5786C13.0191 16.3476 13.2212 16.0948 13.4601 16.0948C13.7121 16.0948 13.9562 16.3476 13.9562 16.5786V20.517C13.9562 20.8259 13.7672 20.9431 13.5852 21C13.3411 21 13.2212 20.944 13.0191 20.7559L10.7039 17.8168V20.5179C10.7039 20.8268 10.5149 21.0009 10.2629 21.0009C10.0109 21.0009 9.78687 20.8268 9.78687 20.5179V16.6486H9.78774Z" fill="white"/>
<path d="M19.2194 20.4619C18.7224 20.874 18.1134 21.0499 17.4983 21.0499C16.0283 21.0499 14.9861 20.2099 14.9861 18.5448C14.9861 17.1316 16.0851 16.0335 17.5604 16.0335C18.1134 16.0335 18.7215 16.2225 19.1555 16.6495C19.5825 17.0686 18.9665 17.6916 18.5474 17.3215C18.2884 17.0686 17.9244 16.8805 17.5604 16.8805C16.7143 16.8805 15.8961 17.5586 15.8961 18.5448C15.8961 19.5808 16.5813 20.2099 17.4983 20.2099C17.9244 20.2099 18.2884 20.0839 18.5474 19.8949V19.0356H17.4983C16.8753 19.0356 16.9383 18.1808 17.4983 18.1808H18.8974C19.1564 18.1808 19.3935 18.3776 19.3935 18.5946V20.0848C19.3935 20.2099 19.3384 20.328 19.2194 20.4619Z" fill="white"/>
<path d="M21.875 23.625H5.25V24.5H21.875C22.3563 24.5 22.75 24.1063 22.75 23.625V22.75C22.75 23.2313 22.3563 23.625 21.875 23.625Z" fill="#CAD1D8"/>
</g>
<defs>
<clipPath id="clip0_1702_10484">
<rect width="28" height="28" fill="white"/>
</clipPath>
</defs>
</svg>
