<svg width="28" height="28" viewBox="0 0 28 28" fill="none" xmlns="http://www.w3.org/2000/svg">
<g clip-path="url(#clip0_1702_10704)">
<path d="M7 0C6.0375 0 5.25 0.7875 5.25 1.75V26.25C5.25 27.2125 6.0375 28 7 28H24.5C25.4625 28 26.25 27.2125 26.25 26.25V7L19.25 0H7Z" fill="#E2E5E7"/>
<path d="M21 7H26.25L19.25 0V5.25C19.25 6.2125 20.0375 7 21 7Z" fill="#B0B7BD"/>
<path d="M26.25 12.25L21 7H26.25V12.25Z" fill="#CAD1D8"/>
<path d="M22.75 22.75C22.75 23.2312 22.3563 23.625 21.875 23.625H2.625C2.14375 23.625 1.75 23.2312 1.75 22.75V14C1.75 13.5187 2.14375 13.125 2.625 13.125H21.875C22.3563 13.125 22.75 13.5187 22.75 14V22.75Z" fill="#F15642"/>
<path d="M5.76714 16.5786C5.76714 16.3476 5.94914 16.0956 6.24226 16.0956H7.85839C8.76839 16.0956 9.58739 16.7046 9.58739 17.8719C9.58739 18.9779 8.76839 19.5939 7.85839 19.5939H6.69026V20.5179C6.69026 20.8259 6.49514 21 6.24314 21C6.01214 21 5.76801 20.8259 5.76801 20.5179V16.5786H5.76714ZM6.69026 16.9768V18.7198H7.85839C8.32739 18.7198 8.69839 18.3059 8.69839 17.8719C8.69839 17.3828 8.32739 16.9768 7.85839 16.9768H6.69026Z" fill="white"/>
<path d="M10.479 16.5786C10.479 16.3476 10.661 16.0956 10.955 16.0956H12.5711C13.4811 16.0956 14.3001 16.7046 14.3001 17.8719C14.3001 18.9779 13.4811 19.5939 12.5711 19.5939H11.403V20.5179C11.403 20.8259 11.207 21 10.955 21C10.724 21 10.479 20.8259 10.479 20.5179V16.5786ZM11.4021 16.9768V18.7198H12.5703C13.0393 18.7198 13.4103 18.3059 13.4103 17.8719C13.4103 17.3828 13.0393 16.9768 12.5703 16.9768H11.4021Z" fill="white"/>
<path d="M16.4981 17.0337H15.2749C14.6659 17.0337 14.6659 16.1385 15.2749 16.1385H18.5833C19.2063 16.1385 19.2063 17.0337 18.5833 17.0337H17.4221V20.5669C17.4221 21.175 16.4981 21.1899 16.4981 20.5669V17.0337Z" fill="white"/>
<path d="M21.875 23.625H5.25V24.5H21.875C22.3563 24.5 22.75 24.1063 22.75 23.625V22.75C22.75 23.2313 22.3563 23.625 21.875 23.625Z" fill="#CAD1D8"/>
</g>
<defs>
<clipPath id="clip0_1702_10704">
<rect width="28" height="28" fill="white"/>
</clipPath>
</defs>
</svg>
