<svg width="28" height="28" viewBox="0 0 28 28" fill="none" xmlns="http://www.w3.org/2000/svg">
<g clip-path="url(#clip0_1702_10682)">
<path d="M7 0C6.0375 0 5.25 0.7875 5.25 1.75V26.25C5.25 27.2125 6.0375 28 7 28H24.5C25.4625 28 26.25 27.2125 26.25 26.25V7L19.25 0H7Z" fill="#E2E5E7"/>
<path d="M21 7H26.25L19.25 0V5.25C19.25 6.2125 20.0375 7 21 7Z" fill="#B0B7BD"/>
<path d="M26.25 12.25L21 7H26.25V12.25Z" fill="#CAD1D8"/>
<path d="M22.75 22.75C22.75 23.2312 22.3563 23.625 21.875 23.625H2.625C2.14375 23.625 1.75 23.2312 1.75 22.75V14C1.75 13.5187 2.14375 13.125 2.625 13.125H21.875C22.3563 13.125 22.75 13.5187 22.75 14V22.75Z" fill="#F7B84E"/>
<path d="M8.18652 16.5786C8.18652 16.3476 8.36852 16.0947 8.66252 16.0947H10.2787C11.1887 16.0947 12.0077 16.7037 12.0077 17.8719C12.0077 18.9779 11.1887 19.593 10.2787 19.593H9.11052V20.517C9.11052 20.8259 8.91452 21 8.66252 21C8.43152 21 8.18652 20.8259 8.18652 20.517V16.5786ZM9.11052 16.9767V18.7189H10.2787C10.7477 18.7189 11.1187 18.3059 11.1187 17.8719C11.1187 17.3819 10.7477 16.9767 10.2787 16.9767H9.11052Z" fill="white"/>
<path d="M12.7986 17.2077C12.9596 15.8506 15.0089 15.6065 15.9749 16.3485C16.4509 16.7326 15.9469 17.3416 15.5269 17.0336C15.0089 16.7046 13.8338 16.5506 13.6868 17.2777C13.4978 18.4257 16.541 17.7686 16.492 19.6289C16.443 21.406 13.8688 21.448 12.9028 20.65C12.6709 20.4619 12.6788 20.1547 12.8048 19.9649C12.9868 19.7837 13.1889 19.7207 13.4278 19.9159C14.0009 20.3079 15.4779 20.6019 15.582 19.607C15.4919 18.5727 12.5816 19.1957 12.7986 17.2077Z" fill="white"/>
<path d="M21.875 23.625H5.25V24.5H21.875C22.3563 24.5 22.75 24.1063 22.75 23.625V22.75C22.75 23.2313 22.3563 23.625 21.875 23.625Z" fill="#CAD1D8"/>
</g>
<defs>
<clipPath id="clip0_1702_10682">
<rect width="28" height="28" fill="white"/>
</clipPath>
</defs>
</svg>
