<svg width="28" height="28" viewBox="0 0 28 28" fill="none" xmlns="http://www.w3.org/2000/svg">
<g clip-path="url(#clip0_1702_10671)">
<path d="M7 0C6.0375 0 5.25 0.7875 5.25 1.75V26.25C5.25 27.2125 6.0375 28 7 28H24.5C25.4625 28 26.25 27.2125 26.25 26.25V7L19.25 0H7Z" fill="#E2E5E7"/>
<path d="M21 7H26.25L19.25 0V5.25C19.25 6.2125 20.0375 7 21 7Z" fill="#B0B7BD"/>
<path d="M26.25 12.25L21 7H26.25V12.25Z" fill="#CAD1D8"/>
<path d="M22.75 22.75C22.75 23.2312 22.3563 23.625 21.875 23.625H2.625C2.14375 23.625 1.75 23.2312 1.75 22.75V14C1.75 13.5187 2.14375 13.125 2.625 13.125H21.875C22.3563 13.125 22.75 13.5187 22.75 14V22.75Z" fill="#50BEE8"/>
<path d="M5.46875 16.5786C5.46875 16.3476 5.65075 16.0947 5.94388 16.0947H7.56C8.47 16.0947 9.289 16.7037 9.289 17.8719C9.289 18.9779 8.47 19.593 7.56 19.593H6.39187V20.517C6.39187 20.8259 6.19588 21 5.94388 21C5.71288 21 5.46875 20.8259 5.46875 20.517V16.5786ZM6.39187 16.9767V18.7189H7.56C8.029 18.7189 8.4 18.3059 8.4 17.8719C8.4 17.3819 8.029 16.9767 7.56 16.9767H6.39187Z" fill="white"/>
<path d="M10.08 17.2077C10.241 15.8506 12.2903 15.6065 13.2563 16.3485C13.7323 16.7326 13.2283 17.3416 12.8083 17.0336C12.2903 16.7046 11.1151 16.5506 10.9681 17.2777C10.7791 18.4257 13.8224 17.7686 13.7734 19.6289C13.7244 21.406 11.1501 21.448 10.1841 20.65C9.95227 20.4619 9.96014 20.1547 10.0861 19.9649C10.2681 19.7837 10.4703 19.7207 10.7091 19.9159C11.2823 20.3079 12.7593 20.6019 12.8634 19.607C12.7733 18.5727 9.86214 19.1957 10.08 17.2077Z" fill="white"/>
<path d="M15.2162 21C14.9852 21 14.7332 20.8731 14.7332 20.566V16.5926C14.7332 16.3406 14.9852 16.1586 15.2162 16.1586H16.8183C20.0156 16.1586 19.9456 21 16.8813 21H15.2162ZM15.6572 17.0117V20.146H16.8183C18.7075 20.146 18.7915 17.0117 16.8183 17.0117H15.6572Z" fill="white"/>
<path d="M21.875 23.625H5.25V24.5H21.875C22.3563 24.5 22.75 24.1063 22.75 23.625V22.75C22.75 23.2313 22.3563 23.625 21.875 23.625Z" fill="#CAD1D8"/>
</g>
<defs>
<clipPath id="clip0_1702_10671">
<rect width="28" height="28" fill="white"/>
</clipPath>
</defs>
</svg>
