<svg width="28" height="28" viewBox="0 0 28 28" fill="none" xmlns="http://www.w3.org/2000/svg">
<g clip-path="url(#clip0_1702_10660)">
<path d="M7 0C6.0375 0 5.25 0.7875 5.25 1.75V26.25C5.25 27.2125 6.0375 28 7 28H24.5C25.4625 28 26.25 27.2125 26.25 26.25V7L19.25 0H7Z" fill="#E2E5E7"/>
<path d="M21 7H26.25L19.25 0V5.25C19.25 6.2125 20.0375 7 21 7Z" fill="#B0B7BD"/>
<path d="M26.25 12.25L21 7H26.25V12.25Z" fill="#CAD1D8"/>
<path d="M22.75 22.75C22.75 23.2312 22.3563 23.625 21.875 23.625H2.625C2.14375 23.625 1.75 23.2312 1.75 22.75V14C1.75 13.5187 2.14375 13.125 2.625 13.125H21.875C22.3563 13.125 22.75 13.5187 22.75 14V22.75Z" fill="#576D7E"/>
<path d="M5.19049 20.545C5.19049 21.1531 4.25949 21.1741 4.25949 20.559V16.5856C4.25949 16.3406 4.44937 16.1586 4.67949 16.1586H6.54062C8.31687 16.1586 8.68087 18.5378 7.19774 19.1319L8.12787 20.265C8.49187 20.804 7.76474 21.3211 7.34387 20.79L6.28774 19.2789H5.19049V20.545ZM5.19049 18.4739H6.54062C7.44974 18.4739 7.50662 17.0048 6.54062 17.0048H5.19049V18.4739Z" fill="white"/>
<path d="M8.89349 21C8.66949 20.8731 8.52949 20.622 8.66949 20.328L10.6767 16.4036C10.8657 16.0326 11.3697 16.0186 11.5447 16.4036L13.517 20.328C13.804 20.8731 12.957 21.3071 12.7059 20.762L12.397 20.146H9.81574L9.51474 20.762C9.40361 21 9.14461 21.0499 8.89349 21ZM11.9017 19.2229L11.1116 17.4948L10.2515 19.2229H11.9017Z" fill="white"/>
<path d="M18.662 19.3279L19.7041 16.4456C19.9141 15.8795 20.7602 16.1446 20.5511 16.7536L19.166 20.5109C19.0391 20.9099 18.921 21.0289 18.683 21.0289C18.431 21.0289 18.354 20.874 18.214 20.6229L16.9968 17.8596L15.8348 20.5809C15.7088 20.874 15.5907 21.042 15.3387 21.042C15.0946 21.042 14.9677 20.874 14.8557 20.566L13.4986 16.7536C13.2886 16.1245 14.1767 15.8935 14.3587 16.4456L15.3947 19.3279L16.6328 16.4456C16.8 16.0186 17.241 15.9976 17.423 16.4255L18.662 19.3279Z" fill="white"/>
<path d="M21.875 23.625H5.25V24.5H21.875C22.3563 24.5 22.75 24.1063 22.75 23.625V22.75C22.75 23.2313 22.3563 23.625 21.875 23.625Z" fill="#CAD1D8"/>
</g>
<defs>
<clipPath id="clip0_1702_10660">
<rect width="28" height="28" fill="white"/>
</clipPath>
</defs>
</svg>
