<svg width="28" height="28" viewBox="0 0 28 28" fill="none" xmlns="http://www.w3.org/2000/svg">
<g clip-path="url(#clip0_1702_10919)">
<path d="M7 0C6.0375 0 5.25 0.7875 5.25 1.75V26.25C5.25 27.2125 6.0375 28 7 28H24.5C25.4625 28 26.25 27.2125 26.25 26.25V7L19.25 0H7Z" fill="#E2E5E7"/>
<path d="M21 7H26.25L19.25 0V5.25C19.25 6.2125 20.0375 7 21 7Z" fill="#B0B7BD"/>
<path d="M26.25 12.25L21 7H26.25V12.25Z" fill="#CAD1D8"/>
<path d="M22.75 22.75C22.75 23.2312 22.3563 23.625 21.875 23.625H2.625C2.14375 23.625 1.75 23.2312 1.75 22.75V14C1.75 13.5187 2.14375 13.125 2.625 13.125H21.875C22.3563 13.125 22.75 13.5187 22.75 14V22.75Z" fill="#F15642"/>
<path d="M5.3664 17.2086C5.5274 15.8506 7.57665 15.6065 8.54177 16.3485C9.01777 16.7326 8.51465 17.3416 8.09377 17.0336C7.57665 16.7055 6.40065 16.5515 6.25365 17.2778C6.06465 18.4258 9.10877 17.7686 9.05889 19.6297C9.00989 21.4069 6.43565 21.448 5.46965 20.6509C5.23865 20.4619 5.24565 20.1547 5.37252 19.9649C5.55365 19.7837 5.75665 19.7207 5.99465 19.9167C6.56865 20.3079 8.04477 20.6019 8.14977 19.6079C8.05965 18.5736 5.1494 19.1957 5.3664 17.2086Z" fill="white"/>
<path d="M14.5189 20.2029L14.6309 20.335C15.0921 20.755 14.4909 21.441 14.0219 21L13.7848 20.8119C13.4208 21.063 12.9947 21.1829 12.4277 21.1829C11.1966 21.1829 9.78955 20.335 9.78955 18.6139C9.78955 16.8927 11.1887 16.0186 12.4277 16.0186C13.7279 16.0186 15.0019 16.8927 15.0019 18.6139C15.0019 19.2789 14.8331 19.7697 14.5189 20.2029ZM14.098 18.6139C14.098 17.5017 13.2239 16.9356 12.4268 16.9356C11.5667 16.9356 10.7197 17.5009 10.7197 18.6139C10.7197 19.4617 11.4398 20.2659 12.4268 20.2659C12.6779 20.2659 12.9229 20.2029 13.1679 20.1399L12.3708 19.4049C11.9998 18.9569 12.5878 18.3199 13.0559 18.7329L13.8469 19.523C14.021 19.2789 14.098 18.9779 14.098 18.6139Z" fill="white"/>
<path d="M16.0327 16.5786C16.0327 16.3476 16.2287 16.1516 16.4737 16.1516C16.6977 16.1516 16.8867 16.3485 16.8867 16.5786V20.0839H18.7898C19.4749 20.0839 19.4898 21 18.7898 21H16.4745C16.2295 21 16.0335 20.8259 16.0335 20.5739V16.5786H16.0327Z" fill="white"/>
<path d="M21.875 23.625H5.25V24.5H21.875C22.3563 24.5 22.75 24.1063 22.75 23.625V22.75C22.75 23.2313 22.3563 23.625 21.875 23.625Z" fill="#CAD1D8"/>
</g>
<defs>
<clipPath id="clip0_1702_10919">
<rect width="28" height="28" fill="white"/>
</clipPath>
</defs>
</svg>
