<svg width="28" height="28" viewBox="0 0 28 28" fill="none" xmlns="http://www.w3.org/2000/svg">
<g clip-path="url(#clip0_1702_10506)">
<path d="M7 0C6.0375 0 5.25 0.7875 5.25 1.75V26.25C5.25 27.2125 6.0375 28 7 28H24.5C25.4625 28 26.25 27.2125 26.25 26.25V7L19.25 0H7Z" fill="#E2E5E7"/>
<path d="M21 7H26.25L19.25 0V5.25C19.25 6.2125 20.0375 7 21 7Z" fill="#B0B7BD"/>
<path d="M26.25 12.25L21 7H26.25V12.25Z" fill="#CAD1D8"/>
<path d="M22.75 22.75C22.75 23.2312 22.3563 23.625 21.875 23.625H2.625C2.14375 23.625 1.75 23.2312 1.75 22.75V14C1.75 13.5187 2.14375 13.125 2.625 13.125H21.875C22.3563 13.125 22.75 13.5187 22.75 14V22.75Z" fill="#F7B84E"/>
<path d="M5.29457 17.2077C5.45557 15.8506 7.50482 15.6065 8.47082 16.3485C8.94682 16.7326 8.44282 17.3416 8.02282 17.0336C7.50482 16.7046 6.3297 16.5506 6.1827 17.2777C5.9937 18.4257 9.03695 17.7686 8.98882 19.6289C8.93982 21.406 6.3647 21.448 5.3987 20.65C5.1677 20.4619 5.1747 20.1547 5.3007 19.9649C5.4827 19.7837 5.6857 19.7207 5.9237 19.9159C6.49682 20.3079 7.97382 20.6019 8.07795 19.607C7.98782 18.5727 5.07757 19.1957 5.29457 17.2077Z" fill="white"/>
<path d="M11.4362 20.6859L9.5891 16.8166C9.3161 16.2636 10.1421 15.8095 10.4492 16.3896L11.0722 17.7957L11.8764 19.6429L12.6665 17.7957L13.2895 16.3896C13.5695 15.8585 14.3806 16.1936 14.1435 16.7746L12.3594 20.6859C12.1984 21.1269 11.7022 21.231 11.4362 20.6859Z" fill="white"/>
<path d="M18.9087 20.4619C18.4117 20.874 17.8027 21.0499 17.1876 21.0499C15.7176 21.0499 14.6755 20.2099 14.6755 18.5447C14.6755 17.1316 15.7745 16.0335 17.2497 16.0335C17.8027 16.0335 18.4108 16.2225 18.8448 16.6495C19.271 17.0686 18.6558 17.6916 18.2367 17.3215C17.9777 17.0686 17.6137 16.8805 17.2497 16.8805C16.4036 16.8805 15.5855 17.5586 15.5855 18.5447C15.5855 19.5807 16.2706 20.2099 17.1876 20.2099C17.6137 20.2099 17.9777 20.0839 18.2367 19.8949V19.0356H17.1876C16.5646 19.0356 16.6276 18.1807 17.1876 18.1807H18.5867C18.8457 18.1807 19.0828 18.3776 19.0828 18.5946V20.0847C19.0837 20.2099 19.0277 20.328 18.9087 20.4619Z" fill="white"/>
<path d="M21.875 23.625H5.25V24.5H21.875C22.3563 24.5 22.75 24.1063 22.75 23.625V22.75C22.75 23.2313 22.3563 23.625 21.875 23.625Z" fill="#CAD1D8"/>
</g>
<defs>
<clipPath id="clip0_1702_10506">
<rect width="28" height="28" fill="white"/>
</clipPath>
</defs>
</svg>
