<svg width="28" height="28" viewBox="0 0 28 28" fill="none" xmlns="http://www.w3.org/2000/svg">
<g clip-path="url(#clip0_1702_10495)">
<path d="M7 0C6.0375 0 5.25 0.7875 5.25 1.75V26.25C5.25 27.2125 6.0375 28 7 28H24.5C25.4625 28 26.25 27.2125 26.25 26.25V7L19.25 0H7Z" fill="#E2E5E7"/>
<path d="M21 7H26.25L19.25 0V5.25C19.25 6.2125 20.0375 7 21 7Z" fill="#B0B7BD"/>
<path d="M26.25 12.25L21 7H26.25V12.25Z" fill="#CAD1D8"/>
<path d="M22.75 22.75C22.75 23.2312 22.3563 23.625 21.875 23.625H2.625C2.14375 23.625 1.75 23.2312 1.75 22.75V14C1.75 13.5187 2.14375 13.125 2.625 13.125H21.875C22.3563 13.125 22.75 13.5187 22.75 14V22.75Z" fill="#A066AA"/>
<path d="M8.52163 17.0337H7.29751C6.68938 17.0337 6.68938 16.1385 7.29751 16.1385H10.6068C11.2289 16.1385 11.2289 17.0337 10.6068 17.0337H9.44563V20.566C9.44563 21.1742 8.52163 21.189 8.52163 20.566V17.0337Z" fill="white"/>
<path d="M11.8965 16.5787C11.8965 16.0047 12.8205 15.9837 12.8205 16.5787V20.5722C12.8205 21.1532 11.8965 21.1672 11.8965 20.5722V16.5787Z" fill="white"/>
<path d="M14.9687 17.0678V18.1799H16.7519C17.0039 18.1799 17.2559 18.4319 17.2559 18.6769C17.2559 18.9079 17.0039 19.0961 16.7519 19.0961H14.9687V20.5652C14.9687 20.8102 14.7937 20.9992 14.5487 20.9992C14.2407 20.9992 14.0525 20.8102 14.0525 20.5652V16.5918C14.0525 16.3398 14.2415 16.1578 14.5487 16.1578H17.0048C17.3128 16.1578 17.4948 16.3398 17.4948 16.5918C17.4948 16.8158 17.3128 17.0669 17.0048 17.0669H14.9687V17.0678Z" fill="white"/>
<path d="M21.875 23.625H5.25V24.5H21.875C22.3563 24.5 22.75 24.1063 22.75 23.625V22.75C22.75 23.2313 22.3563 23.625 21.875 23.625Z" fill="#CAD1D8"/>
</g>
<defs>
<clipPath id="clip0_1702_10495">
<rect width="28" height="28" fill="white"/>
</clipPath>
</defs>
</svg>
