<svg width="28" height="28" viewBox="0 0 28 28" fill="none" xmlns="http://www.w3.org/2000/svg">
<g clip-path="url(#clip0_1702_9514)">
<path d="M7 0C6.0375 0 5.25 0.7875 5.25 1.75V26.25C5.25 27.2125 6.0375 28 7 28H24.5C25.4625 28 26.25 27.2125 26.25 26.25V7L19.25 0H7Z" fill="#E2E5E7"/>
<path d="M21 7H26.25L19.25 0V5.25C19.25 6.2125 20.0375 7 21 7Z" fill="#B0B7BD"/>
<path d="M26.25 12.25L21 7H26.25V12.25Z" fill="#CAD1D8"/>
<path d="M22.75 22.75C22.75 23.2312 22.3563 23.625 21.875 23.625H2.625C2.14375 23.625 1.75 23.2312 1.75 22.75V14C1.75 13.5187 2.14375 13.125 2.625 13.125H21.875C22.3563 13.125 22.75 13.5187 22.75 14V22.75Z" fill="#576D7E"/>
<path d="M7.26156 17.0341H6.03744C5.42844 17.0341 5.42844 16.1389 6.03744 16.1389H9.34669C9.96969 16.1389 9.96969 17.0341 9.34669 17.0341H8.18469V20.5664C8.18469 21.1746 7.26069 21.1894 7.26069 20.5664V17.0341H7.26156Z" fill="white"/>
<path d="M12.2726 17.8377L13.4906 16.3126C13.8546 15.8375 14.5608 16.4456 14.1626 16.9006C13.7426 17.3976 13.3025 17.9366 12.8816 18.4879L14.3096 20.265C14.6938 20.79 13.9246 21.294 13.5466 20.776L12.2595 19.1249L10.9934 20.811C10.6364 21.3211 9.84539 20.748 10.2453 20.272L11.6505 18.4879C11.2104 17.9357 10.7834 17.3976 10.3564 16.9006C9.91539 16.3756 10.7344 15.8375 11.0555 16.3275L12.2726 17.8377Z" fill="white"/>
<path d="M16.3125 17.0336H15.0893C14.4803 17.0336 14.4803 16.1385 15.0893 16.1385H18.3977C19.0207 16.1385 19.0207 17.0336 18.3977 17.0336H17.2365V20.566C17.2365 21.1741 16.3125 21.189 16.3125 20.566V17.0336Z" fill="white"/>
<path d="M21.875 23.625H5.25V24.5H21.875C22.3563 24.5 22.75 24.1063 22.75 23.625V22.75C22.75 23.2313 22.3563 23.625 21.875 23.625Z" fill="#CAD1D8"/>
</g>
<defs>
<clipPath id="clip0_1702_9514">
<rect width="28" height="28" fill="white"/>
</clipPath>
</defs>
</svg>
