<svg width="28" height="28" viewBox="0 0 28 28" fill="none" xmlns="http://www.w3.org/2000/svg">
<g clip-path="url(#clip0_1702_10737)">
<path d="M7 0C6.0375 0 5.25 0.7875 5.25 1.75V26.25C5.25 27.2125 6.0375 28 7 28H24.5C25.4625 28 26.25 27.2125 26.25 26.25V7L19.25 0H7Z" fill="#E2E5E7"/>
<path d="M21 7H26.25L19.25 0V5.25C19.25 6.2125 20.0375 7 21 7Z" fill="#B0B7BD"/>
<path d="M26.25 12.25L21 7H26.25V12.25Z" fill="#CAD1D8"/>
<path d="M22.75 22.75C22.75 23.2312 22.3563 23.625 21.875 23.625H2.625C2.14375 23.625 1.75 23.2312 1.75 22.75V14C1.75 13.5187 2.14375 13.125 2.625 13.125H21.875C22.3563 13.125 22.75 13.5187 22.75 14V22.75Z" fill="#84BD5A"/>
<path d="M8.37899 19.3298L9.42112 16.4467C9.63024 15.8814 10.4772 16.1457 10.2672 16.7547L8.88212 20.5128C8.75612 20.9109 8.63799 21.0308 8.39912 21.0308C8.14799 21.0308 8.07012 20.8759 7.93099 20.6239L6.71387 17.8598L5.55274 20.5819C5.42587 20.8751 5.30862 21.0431 5.05574 21.0431C4.81162 21.0431 4.68474 20.8751 4.57362 20.5671L3.21649 16.7538C3.00649 16.1247 3.89462 15.8946 4.07574 16.4458L5.11174 19.3289L6.35074 16.4458C6.51787 16.0197 6.95887 15.9978 7.13999 16.4257L8.37899 19.3298Z" fill="white"/>
<path d="M12.0172 17.9288V20.5179C12.0172 20.8259 11.7652 21 11.5141 21C11.2901 21 11.0941 20.8259 11.0941 20.5179V16.5786C11.0941 16.2146 11.403 16.0956 11.5141 16.0956C11.7162 16.0956 11.8352 16.2146 11.9542 16.3476L13.4942 18.4258L15.0885 16.2706C15.3204 15.9836 15.8865 16.0956 15.8865 16.5786V20.5179C15.8865 20.8259 15.6896 21 15.4665 21C15.2154 21 15.0185 20.8259 15.0185 20.5179V17.9288L13.8574 19.3988C13.6062 19.7068 13.2912 19.7068 13.0602 19.3988L12.0172 17.9288Z" fill="white"/>
<path d="M18.5815 20.6859L16.7344 16.8166C16.4614 16.2645 17.2874 15.8104 17.5945 16.3905L18.2175 17.7958L19.0216 19.6429L19.8118 17.7958L20.4348 16.3905C20.7148 15.8585 21.5259 16.1945 21.2888 16.7755L19.5046 20.6859C19.3436 21.1269 18.8475 21.231 18.5815 20.6859Z" fill="white"/>
<path d="M21.875 23.625H5.25V24.5H21.875C22.3563 24.5 22.75 24.1063 22.75 23.625V22.75C22.75 23.2313 22.3563 23.625 21.875 23.625Z" fill="#CAD1D8"/>
</g>
<defs>
<clipPath id="clip0_1702_10737">
<rect width="28" height="28" fill="white"/>
</clipPath>
</defs>
</svg>
