<svg width="28" height="28" viewBox="0 0 28 28" fill="none" xmlns="http://www.w3.org/2000/svg">
<g clip-path="url(#clip0_1702_10962)">
<path d="M7 0C6.0375 0 5.25 0.7875 5.25 1.75V26.25C5.25 27.2125 6.0375 28 7 28H24.5C25.4625 28 26.25 27.2125 26.25 26.25V7L19.25 0H7Z" fill="#E2E5E7"/>
<path d="M21 7H26.25L19.25 0V5.25C19.25 6.2125 20.0375 7 21 7Z" fill="#B0B7BD"/>
<path d="M26.25 12.25L21 7H26.25V12.25Z" fill="#CAD1D8"/>
<path d="M22.75 22.75C22.75 23.2312 22.3563 23.625 21.875 23.625H2.625C2.14375 23.625 1.75 23.2312 1.75 22.75V14C1.75 13.5187 2.14375 13.125 2.625 13.125H21.875C22.3563 13.125 22.75 13.5187 22.75 14V22.75Z" fill="#50BEE8"/>
<path d="M7.17931 17.8377L8.39731 16.3126C8.76044 15.8375 9.46744 16.4456 9.06931 16.9006C8.65019 17.3976 8.20919 17.9366 7.78831 18.4879L9.21631 20.265C9.60044 20.79 8.83131 21.294 8.45331 20.776L7.16619 19.1249L5.90006 20.811C5.54306 21.3211 4.75206 20.748 5.15194 20.272L6.55806 18.4879C6.11706 17.9357 5.69006 17.3976 5.26394 16.9006C4.82294 16.3756 5.64194 15.8375 5.96306 16.3275L7.17931 17.8377Z" fill="white"/>
<path d="M11.0065 17.9288V20.517C11.0065 20.8259 10.7545 21 10.5034 21C10.2794 21 10.0834 20.8259 10.0834 20.517V16.5786C10.0834 16.2146 10.3923 16.0948 10.5034 16.0948C10.7055 16.0948 10.8245 16.2146 10.9435 16.3476L12.4835 18.4249L14.0778 16.2698C14.3097 15.9836 14.8758 16.0948 14.8758 16.5786V20.517C14.8758 20.8259 14.6798 21 14.4567 21C14.2047 21 14.0087 20.8259 14.0087 20.517V17.9288L12.8467 19.3979C12.5955 19.7068 12.2805 19.7068 12.0495 19.3979L11.0065 17.9288Z" fill="white"/>
<path d="M16.0938 16.5786C16.0938 16.3476 16.2898 16.1516 16.5348 16.1516C16.7588 16.1516 16.9478 16.3485 16.9478 16.5786V20.0839H18.851C19.5361 20.0839 19.551 21 18.851 21H16.5357C16.2907 21 16.0947 20.8259 16.0947 20.573V16.5786H16.0938Z" fill="white"/>
<path d="M21.875 23.625H5.25V24.5H21.875C22.3563 24.5 22.75 24.1063 22.75 23.625V22.75C22.75 23.2313 22.3563 23.625 21.875 23.625Z" fill="#CAD1D8"/>
</g>
<defs>
<clipPath id="clip0_1702_10962">
<rect width="28" height="28" fill="white"/>
</clipPath>
</defs>
</svg>
