<svg width="28" height="28" viewBox="0 0 28 28" fill="none" xmlns="http://www.w3.org/2000/svg">
<g clip-path="url(#clip0_1702_10693)">
<path d="M7 0C6.0375 0 5.25 0.7875 5.25 1.75V26.25C5.25 27.2125 6.0375 28 7 28H24.5C25.4625 28 26.25 27.2125 26.25 26.25V7L19.25 0H7Z" fill="#E2E5E7"/>
<path d="M21 7H26.25L19.25 0V5.25C19.25 6.2125 20.0375 7 21 7Z" fill="#B0B7BD"/>
<path d="M26.25 12.25L21 7H26.25V12.25Z" fill="#CAD1D8"/>
<path d="M22.75 22.75C22.75 23.2312 22.3563 23.625 21.875 23.625H2.625C2.14375 23.625 1.75 23.2312 1.75 22.75V14C1.75 13.5187 2.14375 13.125 2.625 13.125H21.875C22.3563 13.125 22.75 13.5187 22.75 14V22.75Z" fill="#84BD5A"/>
<path d="M7.25375 21.0015C6.81275 21.0015 6.63775 20.5754 6.88975 20.2744L9.38087 16.9651H7.31587C6.70775 16.9651 6.75675 16.1059 7.31587 16.1059H10.136C10.6671 16.1059 10.8211 16.6081 10.444 17.015L8.05787 20.1134H10.332C10.892 20.1134 10.962 21.0024 10.2769 21.0024H7.25375V21.0015Z" fill="white"/>
<path d="M11.5964 16.5786C11.5964 16.0046 12.5204 15.9836 12.5204 16.5786V20.573C12.5204 21.1532 11.5964 21.168 11.5964 20.573V16.5786Z" fill="white"/>
<path d="M13.7603 16.5786C13.7603 16.3476 13.9423 16.0956 14.2363 16.0956H15.8524C16.7624 16.0956 17.5814 16.7046 17.5814 17.8719C17.5814 18.9779 16.7624 19.5939 15.8524 19.5939H14.6843V20.5179C14.6843 20.8259 14.4883 21 14.2363 21C14.0053 21 13.7603 20.8259 13.7603 20.5179V16.5786ZM14.6834 16.9768V18.7198H15.8515C16.3205 18.7198 16.6915 18.3059 16.6915 17.8719C16.6915 17.3828 16.3205 16.9768 15.8515 16.9768H14.6834Z" fill="white"/>
<path d="M21.875 23.625H5.25V24.5H21.875C22.3563 24.5 22.75 24.1063 22.75 23.625V22.75C22.75 23.2313 22.3563 23.625 21.875 23.625Z" fill="#CAD1D8"/>
</g>
<defs>
<clipPath id="clip0_1702_10693">
<rect width="28" height="28" fill="white"/>
</clipPath>
</defs>
</svg>
